<?xml version="1.0" encoding="utf-8"?>
<!-- Generator: Adobe Illustrator 26.0.3, SVG Export Plug-In . SVG Version: 6.00 Build 0)  -->
<svg version="1.1" id="Layer_1" xmlns="http://www.w3.org/2000/svg" xmlns:xlink="http://www.w3.org/1999/xlink" x="0px" y="0px"
	 width="500px" height="500px" viewBox="0 0 500 500" style="enable-background:new 0 0 500 500;" xml:space="preserve">
<style type="text/css">
	.st0{display:none;}
	.st1{display:inline;fill:#6C6C6C;}
	.st2{display:inline;fill:#606060;}
	.st3{display:none;fill:#606060;}
	.st4{display:inline;fill:#E03636;}
	.st5{display:none;fill:#61B828;}
	.st6{display:inline;fill:#F25050;}
	.st7{display:inline;fill:#46C08B;}
	.st8{display:inline;}
</style>

<g>
	<g>
		<path d="M430.7,251.6c-0.1-21-10.7-37.2-28.7-43.7c-4.3-1.5-8.9-2.3-13.8-3.3H145.1c-0.1-1.5-0.4-2.9-0.4-4.3
			c0-18.5-0.2-37,0-55.5c0.6-51.3,33.4-92.1,82.8-103.2c63.5-14.3,125.3,32.9,127.5,97.9c0.3,8.7,0.4,17.4,0.4,26
			c0,8.3,6.7,15.1,15.1,15.1h0c8.3,0,15.1-6.8,15.1-15.1c0-5.8,0-11.7-0.1-17.5c-0.1-8.5-0.4-17-1.8-25.4
			C371.3,46.3,298.5-3.7,222.5,11.9C162.2,24.2,118,75.1,115,136.5c-1,20.6-0.4,41.3-0.5,62c0,2,0,3.9,0,5.8
			c-4.9,0.9-8.9,1.3-12.7,2.3c-20.2,5.7-32.4,22.6-32.5,45c-0.1,38,0,76,0,114c0,26.3-0.1,52.7,0,79c0.2,26.9,18.9,46.2,45.3,46.3
			c90.3,0.1,180.6,0.2,270.9-0.1c6.6,0,13.8-1.6,19.7-4.4c17.9-8.3,25.5-23.5,25.6-42.8c0.1-41.5,0-83,0-124.5
			C430.8,296.6,430.9,274.1,430.7,251.6z M400.6,442.4c0,13.5-5,18.4-18.4,18.4H117.8c-13.4,0-18.4-5-18.4-18.4c0-63,0-126,0-188.9
			c0-13.8,4.8-18.6,18.7-18.6c44,0,88,0,131.9,0c44.1,0,88.3,0,132.4,0c13.2,0,18.2,4.9,18.2,18.1
			C400.6,316.1,400.6,379.3,400.6,442.4z"/>
		<path d="M289.8,322.8c-8.8-22-33.8-33-57.2-25c-16.9,5.8-28.8,21.4-29.7,38.9c-1,19.9,8.4,36.3,25.7,44c3.2,1.4,4.6,2.9,4.3,6.5
			c-0.3,4.6-0.1,9.3-0.1,14c0,4.5-0.1,9,0,13.5c0.1,10,5.9,16.1,15.2,16c9.1-0.1,14.7-6,14.8-15.8c0.1-9.5,0.1-19,0-28.5
			c0-2.6,0.6-4,3.2-5.2C289,371,299,346,289.8,322.8z M248.2,355.2c-9.1,0.1-15.2-5.7-15.3-14.6c-0.1-9,5.8-15.2,14.7-15.3
			c8.8-0.2,15.2,5.9,15.3,14.8C263.1,349,257.2,355.1,248.2,355.2z"/>
	</g>
</g>
</svg>
