<svg  viewBox="0 0 500 500" xml:space="preserve">
<g>
	<path d="M12.1,472c2.2-10.9,4.5-21.8,6.5-32.7c5.1-27.3,9.9-54.6,15.3-81.8c0.8-4.1,3.8-8.2,6.8-11.3
		c59.7-60,119.7-119.9,179.5-179.7c43-43,86-85.8,128.8-129c12-12.1,23.9-23.5,41.8-25.5c3.1,0,6.2,0,9.3,0c0.4,0.2,0.8,0.5,1.3,0.6
		c13.2,1.1,23.6,7.5,32.7,16.8c12,12.3,24.4,24.4,36.5,36.6c3.1,3.1,6,6.3,8.8,9.6c5.8,7,8.1,15.5,10.2,24.1c0,4.4,0,8.7,0,13.1
		c-0.8,2.8-1.5,5.6-2.4,8.4c-2.6,8.3-7.2,15.4-13.3,21.6c-106.5,106.5-213,212.9-319.4,319.5c-6.1,6.1-13.9,6.4-21.4,7.8
		C99.3,476.5,65.1,482.7,31,489c-0.4,0.1-0.8,0.5-1.1,0.7c-2.2,0-4.4,0-6.5,0c-5.5-1.9-9.3-5.6-11.2-11.2
		C12.1,476.4,12.1,474.2,12.1,472z M343.1,84.9c-91.4,91.4-183,183-274.2,274.2c24.5,24.5,49.4,49.4,74,74
		c91.4-91.3,183-182.9,274.3-274.1C392.6,134.4,367.7,109.4,343.1,84.9z M438.6,138.9c4.8-4.9,9.7-9.9,14.6-14.9
		c11.5-11.6,11.5-24.3,0-35.9c-13.2-13.2-26.4-26.4-39.6-39.5c-1.5-1.5-3.2-3-4.9-4.3c-8.2-5.9-19.4-5.9-26.8,0.7
		c-6.5,5.9-12.2,12.7-18.1,19C388.2,88.5,413.2,113.4,438.6,138.9z M112.5,445.5c-18.7-18.7-37.5-37.5-56.2-56.2
		c-4.1,22.3-8.4,45.3-12.7,68.9C67.3,453.9,90.2,449.7,112.5,445.5z"/>
</g>
</svg>
