<?xml version="1.0" encoding="utf-8"?>
<!-- Generator: Adobe Illustrator 26.0.3, SVG Export Plug-In . SVG Version: 6.00 Build 0)  -->
<svg version="1.1" id="Layer_1" xmlns="http://www.w3.org/2000/svg" xmlns:xlink="http://www.w3.org/1999/xlink" x="0px" y="0px"
	 width="30px" height="30px" viewBox="0 0 120 120" style="enable-background:new 0 0 120 120;" xml:space="preserve">
<style type="text/css">
	.st0{display:none;}
	.st1{display:inline;}
</style>
<g class="st0">
	<path class="st1" d="M29.9,117.6c-0.9-0.2-1.9-0.4-2.8-0.6c-8.1-1.9-13.5-7.7-14.4-16c-0.6-5-0.1-9.9,0.6-14.8
		c0.6-4.3,1.5-8.5,3.3-12.5c2.3-5.3,5.4-10,10.6-12.8c3.3-1.7,6.8-2.6,10.4-2.5c1.2,0,2.4,0.6,3.4,1.2c1.7,0.9,3.3,2.1,4.9,3.1
		c5,3.1,10.3,4.8,16.2,4.3c4.3-0.3,8.3-1.8,12-4c1.3-0.8,2.7-1.5,3.8-2.5c3-2.4,6.3-2.4,9.8-1.7c6.8,1.5,11.5,5.6,14.7,11.5
		c2.7,5.1,4.2,10.5,4.8,16.1c0.5,4.2,0.7,8.4,0.7,12.6c0,9-6.2,16.3-15,18c-0.8,0.2-1.6,0.3-2.4,0.5
		C70.3,117.6,50.1,117.6,29.9,117.6z"/>
	<path class="st1" d="M87.2,30.6c0,15.3-12.4,27.7-27.7,27.6c-15.3,0-27.6-12.4-27.6-27.7C31.9,15.3,44.2,3,59.6,3.1
		C74.9,3.1,87.2,15.4,87.2,30.6z"/>
</g>
<g class="st0">
	<path class="st1" d="M117.1,60.9c-4.4,7.9-10.3,14.5-17.3,20.2c-8,6.6-17,11.2-27.3,13.3c-10.1,2.1-20.1,1.7-30-1.2
		c-0.1,0-0.3-0.1-0.5-0.3c1.9-1.8,3.7-3.7,5.5-5.4c0.2-0.2,0.8-0.3,1.2-0.2c17.5,3.6,32.9-0.9,46.6-12c5.4-4.4,10-9.5,14.1-15.6
		c-2.6-3.1-5-6.3-7.8-9.2c-2.8-2.9-5.9-5.5-8.7-8.1c1.6-1.6,3.3-3.2,5.1-5c7.6,6,14.2,13.1,19.1,21.7
		C117.1,59.7,117.1,60.3,117.1,60.9z"/>
	<path class="st1" d="M28.1,87c-2.7-2-5.3-3.7-7.7-5.7C13.8,76,8.3,69.8,3.8,62.7c-1.2-1.9-1.2-3.6,0-5.5
		c9.4-14.4,21.7-25.2,38.4-30.3c14.2-4.4,28.2-3.5,41.9,2.3c0.9,0.4,1.3,0.3,2-0.4c3.5-3.6,7-7.1,10.6-10.6c2.1-2,5.3-1.3,6.1,1.4
		c0.4,1.5-0.1,2.7-1.2,3.8c-4.4,4.3-8.7,8.7-13,13c-21.6,21.6-43.1,43.2-64.7,64.7c-0.7,0.7-1.7,1.3-2.6,1.6c-1.5,0.4-3-0.5-3.7-1.9
		c-0.7-1.4-0.5-3,0.7-4.2c3-3,5.9-6,8.9-8.9C27.4,87.5,27.7,87.3,28.1,87z M79.4,35.2c-0.1-0.1-0.3-0.2-0.4-0.2
		c-12.1-4.6-24.4-4.8-36.6-0.6c-10,3.4-18.2,9.5-25.2,17.2c-2.4,2.6-4.5,5.5-6.7,8.2c6.2,9,13.7,16.2,22.8,21.4
		c3.1-3.1,6.1-6.1,9.1-9c-6.4-9.5-4-20.2,1.6-26.4c3.1-3.4,6.8-5.7,11.3-6.7c6.2-1.4,11.9-0.1,17.1,3.3C74.7,40,77.1,37.6,79.4,35.2
		z M66.9,47.7C62.1,44.5,54.6,45,49.7,50c-4.9,5-5.1,12.4-2,16.9C54.1,60.6,60.5,54.2,66.9,47.7z"/>
	<path class="st1" d="M80.7,54.3c1.8,8.2,0.1,15.2-5.7,20.9c-5.7,5.6-12.6,7.3-20.6,5.5c0.9-0.9,1.6-1.6,2.3-2.3
		c0.4-0.4,0.8-0.8,1.2-1.2c1.6-1.8,3.4-3.1,6-3.7c5.5-1.2,9.5-6.3,10.1-11.9c0-0.3,0.1-0.7,0.3-0.9C76.4,58.7,78.4,56.6,80.7,54.3z"
		/>
</g>
<path d="M59.9,117.6c-9.6,0-19.3,0-28.9,0c-5.2,0-7.1-2-7.1-7.1c0-14.9,0-29.8,0-44.7c0-6.1,0.3-6.3,6.3-8.4
	c0.7-0.3,1.4-1.8,1.4-2.8c0.1-7.7,0-15.5,0.1-23.2c0.2-11.9,5.5-20.9,16.2-26.2c16.7-8.2,37.3,2.6,39.9,21
	c0.8,5.4,0.5,10.9,0.5,16.4c0,2.9-1.4,3.8-4.8,3.7c-3-0.1-4.2-1-4.3-3.9c-0.1-3.9,0-7.8,0-11.8C79,20.2,70.9,11.6,60.7,11.3
	c-10.6-0.3-19.4,7.5-20,18.1c-0.4,8.5-0.1,17-0.2,25.5c0,2.6,1.5,2.5,3.3,2.5c14.1,0,28.2,0,42.3,0c1.1,0,2.2,0,3.4,0
	c4.4,0.2,6.5,2.2,6.5,6.7c0,10.9,0,21.7,0,32.6c0,4.6,0,9.2,0,13.8c0,4.9-2.1,7-6.9,7C79.4,117.6,69.7,117.6,59.9,117.6z
	 M59.8,101.2C59.8,101.3,59.8,101.3,59.8,101.2c0.6,0.1,1.1,0.1,1.7,0.1c4.1-0.1,4.9-1.1,4.1-5.2c-0.4-2.2-0.8-4.4-1.4-6.5
	c-0.6-2.3-0.9-4.3,0.9-6.5c1.8-2.2,0.9-5.8-1.2-7.6c-2.3-2-5.3-2.1-7.7-0.3c-2.3,1.7-3.5,5.1-1.8,7.4c2,2.6,1.5,5.1,0.9,7.8
	c-0.5,2.3-0.8,4.6-1.4,6.9c-0.7,2.5,0.6,3.6,2.7,4C57.8,101.4,58.8,101.2,59.8,101.2z"/>
</svg>
