<?xml version="1.0" encoding="utf-8"?>
<!-- Generator: Adobe Illustrator 26.0.3, SVG Export Plug-In . SVG Version: 6.00 Build 0)  -->
<svg version="1.1" id="Layer_1" xmlns="http://www.w3.org/2000/svg" xmlns:xlink="http://www.w3.org/1999/xlink" x="0px" y="0px"
	 width="20px" height="20px" viewBox="0 0 120 120" style="enable-background:new 0 0 120 120;" xml:space="preserve">
<style type="text/css">
	.st0{display:none;}
	.st1{display:inline;fill:#FFFFFF;}
	.st2{display:inline;}
</style>
<g class="st0">
	<path class="st1" d="M8.8,36.8c0-6.1,0-12.2,0-18.3C8.8,13,12.7,9,18.2,9C28,9,37.7,9,47.5,9C53,9,57,13,57,18.5
		c0,12.2,0,24.4,0,36.6c0,5.6-3.9,9.5-9.6,9.5c-9.7,0-19.4,0-29.1,0c-5.7,0-9.6-3.9-9.6-9.6C8.8,49,8.8,42.9,8.8,36.8z M49.5,36.8
		c0-6,0-12,0-18c0-1.8-0.6-2.4-2.4-2.4c-9.5,0-19,0-28.5,0c-1.8,0-2.4,0.6-2.4,2.4c0,12,0,23.9,0,35.9c0,1.9,0.6,2.5,2.5,2.5
		c9.5,0,18.9,0,28.4,0c1.9,0,2.5-0.6,2.5-2.5C49.6,48.8,49.5,42.8,49.5,36.8z"/>
	<path class="st1" d="M112.6,85c0,6.2,0,12.4,0,18.5c0,5.3-4,9.3-9.3,9.3c-9.9,0-19.8,0-29.6,0c-5.2,0-9.2-4-9.2-9.2
		c0-12.4,0-24.8,0-37.2c0-5.2,4-9.2,9.2-9.2c10,0,19.9,0,29.9,0c5.1,0,9.1,4,9.1,9.1C112.6,72.5,112.6,78.8,112.6,85z M71.8,85
		c0,6,0,12,0,18.1c0,1.7,0.6,2.3,2.3,2.3c9.6,0,19.1,0,28.7,0c1.7,0,2.3-0.6,2.3-2.4c0-12,0-24,0-36c0-1.8-0.6-2.4-2.4-2.4
		c-9.5,0-19.1,0-28.6,0c-1.8,0-2.4,0.6-2.4,2.4C71.8,73,71.8,79,71.8,85z"/>
	<path class="st1" d="M88.5,49.8c-4.9,0-9.9,0-14.8,0c-5.3,0-9.3-4-9.3-9.3c0-7.4,0-14.7,0-22.1c0-5.4,4-9.3,9.4-9.3
		c9.8,0,19.6,0,29.4,0c5.5,0,9.4,3.9,9.4,9.4c0,7.3,0,14.7,0,22c0,5.4-4,9.3-9.4,9.3C98.3,49.8,93.4,49.8,88.5,49.8z M88.5,42.4
		c4.7,0,9.5,0,14.2,0c1.8,0,2.4-0.6,2.4-2.4c0-7.1,0-14.1,0-21.2c0-1.7-0.6-2.4-2.4-2.4c-9.5,0-19.1,0-28.6,0
		c-1.8,0-2.4,0.6-2.4,2.3c0,7.1,0,14.1,0,21.2c0,1.8,0.6,2.4,2.4,2.4C79,42.4,83.7,42.4,88.5,42.4z"/>
	<path class="st1" d="M32.7,112.8c-4.9,0-9.7,0-14.6,0c-5.4,0-9.4-4-9.4-9.3c0-7.4,0-14.7,0-22.1c0-5.3,4-9.3,9.3-9.3
		c9.9,0,19.8,0,29.6,0c5.3,0,9.3,4,9.3,9.3c0,7.4,0,14.7,0,22.1c0,5.3-4,9.3-9.3,9.3C42.7,112.8,37.7,112.8,32.7,112.8z M32.8,79.5
		c-4.7,0-9.5,0-14.2,0c-1.8,0-2.4,0.6-2.4,2.4c0,7,0,14.1,0,21.1c0,1.8,0.6,2.4,2.4,2.4c9.5,0,19,0,28.5,0c1.9,0,2.5-0.6,2.5-2.5
		c0-7,0-14,0-21c0-1.9-0.6-2.5-2.5-2.5C42.3,79.5,37.6,79.5,32.8,79.5z"/>
</g>
<g class="st0">
	<path class="st1" d="M64.1,119.6c-2.6,0-5.3,0-7.9,0c-1.5-0.2-2.9-0.3-4.4-0.5c-11.6-1.7-21.9-6.2-30.7-14
		C5,90.8-1.7,72.7,0.9,51.4C2.3,39.8,7,29.5,14.7,20.8C29.9,3.7,49-2.9,71.4,1c14.9,2.6,26.9,10.4,36.2,22.3c6,7.7,9.8,16.4,11.4,26
		c0.4,2.1,0.6,4.3,0.9,6.4c0,2.6,0,5.3,0,7.9c-0.1,0.4-0.2,0.8-0.2,1.1c-0.3,2.1-0.4,4.2-0.8,6.2c-2.5,12.8-8.5,23.6-18,32.5
		c-8.6,8-18.7,13.1-30.3,15.1C68.4,119,66.3,119.3,64.1,119.6z M100.1,94c16.1-17.6,19.3-49.9-2.7-71.8C75.2,0.3,39.5,2,19.6,25.9
		C0.3,49.2,6.3,79.2,20.3,94c3.9-13.7,12.5-23.1,25.7-28.4c-13.7-9.9-13.9-27.7-4.3-37.9c9.8-10.5,26.2-10.8,36.4-0.7
		c10,9.9,10.6,28.4-3.6,38.7C87.6,70.9,96.1,80.4,100.1,94z M61.5,112.5c1.6-0.2,4.6-0.3,7.5-0.8c9-1.5,17.1-5.2,24.2-11
		c0.3-0.3,0.6-0.9,0.5-1.3c-0.8-6.4-3.4-12.1-7.5-17c-6-7.1-13.8-11.2-23-12.1c-8.4-0.8-16.2,1.4-23.1,6.4
		C32.5,82.4,27.8,90,26.5,99.5c-0.1,0.4,0.2,1,0.5,1.2C36.6,108.5,47.7,112.4,61.5,112.5z M78.3,44.7c0-9.9-8.2-18.1-18.1-18.2
		c-9.9,0-18.1,8.1-18.2,18.1c-0.1,10,8.1,18.2,18.2,18.2C70.2,62.8,78.3,54.7,78.3,44.7z"/>
</g>
<g class="st0">
	<path class="st1" d="M0.5,103.7c2.6,0,5.3,0,8.1,0c0-0.5,0-1,0-1.5c0-25.3,0-50.6,0-75.8c0-3.4,0.7-4.3,3.9-5.2
		C27.8,17.1,43.1,13,58.4,8.8c3.4-0.9,5.5,0.7,5.5,4.3c0,4.3,0,8.5,0,12.9c-2.6,0-5,0-7.6,0c0-2.8,0-5.6,0-8.6
		C42.9,21,29.6,24.6,16.3,28.2c0,25.2,0,50.3,0,75.5c13.3,0,26.6,0,40,0c0-0.5,0-0.9,0-1.4c0-21.3,0-42.7,0-64
		c0-3.1,1.4-4.5,4.5-4.5c15.4,0,30.9,0,46.3,0c2.8,0,4.4,1.4,4.4,4.2c0,14.8,0,29.6,0,44.4c0,0.3,0,0.7-0.1,1.1c-2.5,0-5,0-7.6,0
		c0-14,0-27.9,0-42c-13.3,0-26.5,0-39.8,0c0,20.7,0,41.4,0,62.3c18.5,0,36.9,0,55.5,0c0,2.6,0,5.1,0,7.7c-39.7,0-79.4,0-119.1,0
		C0.5,108.8,0.5,106.3,0.5,103.7z"/>
	<path class="st1" d="M45.3,33.9c0,2.5,0,4.9,0,7.5c-6,0-12,0-18.1,0c0-2.5,0-4.9,0-7.5C33.2,33.9,39.2,33.9,45.3,33.9z"/>
	<path class="st1" d="M45.3,86c0,2.5,0,5,0,7.6c-6,0-12,0-18.1,0c0-2.5,0-5,0-7.6C33.3,86,39.3,86,45.3,86z"/>
	<path class="st1" d="M74.7,93.5c0-2.5,0-4.9,0-7.5c6,0,12,0,18.1,0c0,2.5,0,4.9,0,7.5C86.8,93.5,80.8,93.5,74.7,93.5z"/>
	<path class="st1" d="M27.2,51.2c6.1,0,12,0,18,0c0,2.5,0,5,0,7.6c-6,0-12,0-18,0C27.2,56.3,27.2,53.8,27.2,51.2z"/>
	<path class="st1" d="M74.7,58.8c0-2.5,0-5,0-7.5c6,0,12,0,18.1,0c0,2.5,0,4.9,0,7.5C86.8,58.8,80.8,58.8,74.7,58.8z"/>
	<path class="st1" d="M27.2,68.6c6.1,0,12,0,18.1,0c0,2.5,0,5,0,7.6c-6,0-12,0-18.1,0C27.2,73.7,27.2,71.2,27.2,68.6z"/>
	<path class="st1" d="M92.8,68.7c0,2.5,0,5,0,7.5c-6,0-12,0-18.1,0c0-2.5,0-5,0-7.5C80.7,68.7,86.7,68.7,92.8,68.7z"/>
	<path class="st1" d="M103.9,97.3c0-2.4,0-4.7,0-7c2.5,0,5,0,7.5,0c0,2.3,0,4.6,0,7C108.9,97.3,106.4,97.3,103.9,97.3z"/>
</g>
<g class="st0">
	<path class="st1" d="M100.6,119.4c-27.1,0-54.2,0-81.3,0c-0.2-0.1-0.3-0.2-0.5-0.2c-9.2-1.6-15.1-7-17.7-15.9
		c-0.3-0.9-0.4-1.8-0.6-2.7c0-27.1,0-54.2,0-81.2c0.1-0.2,0.2-0.3,0.2-0.5C2.4,8.1,11.1,0.6,22,0.6c25.3,0,50.7,0,76,0
		c0.7,0,1.5,0,2.2,0.1c11.1,1.2,19.2,10.2,19.2,21.3c0,25.3,0,50.7,0,76c0,10-6.4,18.3-16.1,20.8C102.4,119,101.5,119.2,100.6,119.4
		z M55.7,110.9c0-34,0-67.8,0-101.7c-0.4,0-0.8,0-1.1,0c-10.8,0-21.7,0-32.5,0c-0.8,0-1.6,0-2.3,0.2c-6.6,1.2-10.7,6.2-10.7,13
		c0,25.1,0,50.3,0,75.4c0,0.8,0,1.7,0.2,2.5c1.2,6.5,6.2,10.6,12.9,10.6c10.8,0,21.5,0,32.3,0C54.8,110.9,55.2,110.9,55.7,110.9z
		 M64.3,9.2c0,0.5,0,0.9,0,1.3c0,14.6,0,29.2,0,43.9c0,1.1,0.3,1.4,1.4,1.4c14.6,0,29.2,0,43.9,0c0.4,0,0.8,0,1.3,0
		c0-0.5,0.1-0.9,0.1-1.2c0-10.8,0-21.5,0-32.3c0-0.8,0-1.6-0.1-2.4c-1.2-6.5-6.2-10.7-12.9-10.7c-10.8,0-21.6,0-32.4,0
		C65.1,9.1,64.8,9.1,64.3,9.2z M64.3,110.8c0.5,0,0.8,0.1,1.1,0.1c10.9,0,21.8,0,32.7,0c0.7,0,1.5,0,2.2-0.1
		c6.5-1.2,10.6-6.2,10.7-12.8c0-10.9,0-21.7,0-32.6c0-0.3-0.1-0.7-0.1-1.1c-0.4,0-0.8,0-1.1,0c-14.7,0-29.5,0-44.2,0
		c-1.1,0-1.2,0.4-1.2,1.3c0,14.7,0,29.3,0,44C64.3,110,64.3,110.4,64.3,110.8z"/>
</g>
<g class="st0">
	<path class="st1" d="M72.2,32.2c0-5.6,0-10.9,0-16.2c0-2.4,0.8-4.4,2.5-6.1c1.4-1.3,3.2-2.1,5.1-2.1c10.6,0,21.2,0,31.8,0
		c3.9,0,7.2,3.1,7.5,7c0.1,0.6,0.1,1.1,0.1,1.7c0,18,0,35.9,0,53.9c0,4.4-2.1,7.4-5.9,8.4c-0.9,0.2-1.8,0.3-2.7,0.3
		c-3.7,0-7.3,0-11,0c-0.5,0-1,0-1.6,0c0,3.9,0,7.7,0,11.4c0,1.1,0,2.1-0.3,3.2c-1,4.4-4.5,7.3-8.9,7.6c-0.6,0-1.2,0.1-1.8,0.1
		c-23.5,0-47,0-70.5,0c-3.8,0-7-1.1-9.2-4.4c-1.1-1.6-1.7-3.5-1.7-5.5c0-16.5,0-33,0-49.4c0-5.3,4.1-9.5,9.4-9.8c0.7,0,1.4,0,2.1,0
		c17.7,0,35.5,0,53.2,0C70.8,32.2,71.4,32.2,72.2,32.2z M93.3,78.9c-0.7,0-1.1,0-1.6,0c-3.6,0-7.2,0-10.8,0c-0.9,0-1.9,0-2.7-0.2
		c-3.7-1-5.9-3.9-5.9-8c0-10.7,0-21.4,0-32.1c0-0.5,0-1.1,0-1.7c-0.7,0-1.1,0-1.6,0c-18.1,0-36.3,0-54.4,0c-3.8,0-5.8,2-5.8,5.8
		c0,16,0,31.9,0,47.9c0,3.7,2,5.8,5.7,5.8c8.4,0,16.8,0,25.1,0c15.5,0,31.1,0,46.6,0c3.1,0,5.4-1.9,5.5-4.7
		C93.4,87.5,93.3,83.3,93.3,78.9z M76.9,43.2c0,9,0,18,0,27.1c0,2.8,1.1,3.9,4,3.9c9.9,0,19.7,0,29.6,0c3,0,4-1,4-4
		c0-17.9,0-35.8,0-53.7c0-2.8-1.1-3.9-3.9-4c-9.9,0-19.7,0-29.6,0c-2.9,0-4,1.1-4,4C76.9,25.4,76.9,34.3,76.9,43.2z"/>
	<path class="st1" d="M51.9,107.5c15.9,0,31.7,0,47.6,0c2.2,0,3.4,0.8,3.4,2.3c0,1.5-1.2,2.4-3.4,2.4c-31.8,0-63.7,0-95.5,0
		c-0.4,0-0.8,0-1.2,0c-1.3-0.2-2.2-1.2-2.1-2.5c0.1-1.2,0.9-2.1,2.2-2.2c0.5,0,0.9,0,1.4,0C20.2,107.5,36.1,107.5,51.9,107.5z"/>
	<path class="st1" d="M95.7,66.4c2.4,0,4.8,0,7.2,0c1.6,0,2.6,0.9,2.6,2.4c0,1.4-0.9,2.3-2.5,2.3c-4.9,0-9.8,0-14.7,0
		c-1.5,0-2.5-1-2.5-2.4c0-1.4,1-2.3,2.6-2.3C90.8,66.4,93.3,66.4,95.7,66.4z"/>
</g>
<g class="st0">
	<path class="st1" d="M0.1,72.9c0.7-1.8,2-2.7,3.8-3.2c2.2-0.6,4.3-1.4,6.4-2.1c2.5-0.8,4.7,0.2,5.4,2.4c0.7,2.2-0.4,4.4-2.9,5.2
		c-2.1,0.7-4.2,1.4-6.3,2.1c-3.4,1.1-4.7,0.7-6.5-2.3C0.1,74.3,0.1,73.6,0.1,72.9z"/>
	<path class="st1" d="M104.9,44.4c0,2.8-1.1,5-3.1,6.9c-4.4,4.3-8.9,8.7-13.3,13c-0.5,0.5-0.7,0.9-0.5,1.6
		c1.1,6.2,2.1,12.3,3.2,18.5c0.7,3.8-0.5,7-3.6,9.3c-3.1,2.3-6.5,2.5-10,0.7c-5.4-2.8-10.8-5.7-16.2-8.5c-0.9-0.5-1.7-0.6-2.6,0
		c-5.3,2.9-10.6,5.5-15.9,8.4c-6,3.3-12.3-0.2-13.8-5.4c-0.7-2.3-0.2-4.6,0.2-6.8c0.9-5.4,1.8-10.8,2.8-16.2
		c0.1-0.7-0.1-1.1-0.5-1.6c-4.5-4.4-9-8.7-13.5-13.1c-4.1-4.1-3.9-10.5,0.6-14.1c1.9-1.6,4.3-1.9,6.6-2.2c5.6-0.8,11.2-1.6,16.7-2.4
		c0.5-0.1,1-0.5,1.2-1c2.8-5.6,5.6-11.3,8.4-16.9c2.8-5.6,9.9-7.1,14.5-3c1,0.9,1.9,2.2,2.5,3.5c2.8,5.4,5.4,10.9,8.1,16.4
		c0.4,0.7,0.8,1,1.6,1.1c6.4,0.9,12.7,1.8,19,2.8C101.8,36,104.9,39.8,104.9,44.4z M60,76.5c1,0.4,1.9,0.7,2.8,1.2
		c5.9,3.1,11.8,6.2,17.8,9.3c0.7,0.4,1.4,0.9,2.2,0.3c0.8-0.6,0.5-1.4,0.4-2.1C82,78.6,80.9,72,79.7,65.4c-0.4-2.2,0-3.8,1.7-5.4
		c4.9-4.7,9.8-9.4,14.6-14.2c0.5-0.5,1-1.3,0.8-1.8c-0.2-0.5-1.1-0.9-1.7-1c-6.9-1.1-13.8-2.1-20.7-3c-1.8-0.2-2.9-1.1-3.7-2.7
		c-2.5-5.2-5.1-10.4-7.7-15.6c-0.6-1.2-1.2-2.5-1.8-3.6c-0.6-1.2-1.8-1.1-2.4,0c-0.2,0.3-0.3,0.6-0.4,0.8c-3,6.1-6.1,12.3-9.1,18.4
		c-0.7,1.4-1.7,2.4-3.2,2.6c-4.8,0.7-9.7,1.4-14.5,2.1c-2.3,0.3-4.6,0.6-6.9,1c-0.5,0.1-1.2,0.6-1.4,1c-0.1,0.4,0.3,1.1,0.6,1.6
		c0.1,0.2,0.4,0.4,0.6,0.6c4.7,4.6,9.5,9.3,14.3,13.8c1.6,1.5,2,3.2,1.6,5.4C39,72,37.9,78.7,36.8,85.3c-0.1,0.7-0.4,1.6,0.4,2
		c0.6,0.2,1.4,0,2-0.3c6.1-3.1,12.1-6.3,18.2-9.5C58.3,77.1,59.1,76.8,60,76.5z"/>
	<path class="st1" d="M115.5,77.8c-0.2-0.1-0.8-0.1-1.4-0.3c-2.4-0.8-4.7-1.5-7.1-2.3c-2.4-0.8-3.6-2.9-2.9-5.1
		c0.7-2.2,2.9-3.3,5.2-2.6c2.6,0.8,5.3,1.7,7.9,2.6c1.9,0.7,3,2.7,2.5,4.6C119.4,76.5,117.8,77.8,115.5,77.8z"/>
	<path class="st1" d="M28.4,17.5c-1.4,0-2.5-0.6-3.3-1.7c-1.6-2.1-3.1-4.3-4.7-6.4c-1.4-2-1-4.3,0.8-5.7c1.8-1.3,4.2-0.9,5.6,0.9
		c1.6,2.2,3.2,4.4,4.8,6.6c0.9,1.3,1,2.8,0.2,4.2C31.2,16.8,29.9,17.5,28.4,17.5z"/>
	<path class="st1" d="M91.5,17.5c-3.1,0-5.1-3.4-3.4-6c1.6-2.4,3.3-4.8,5.1-7.1c1.3-1.7,3.7-1.9,5.4-0.7c1.7,1.3,2.2,3.6,1,5.4
		c-1.6,2.3-3.3,4.6-5,6.9C93.9,17,92.8,17.5,91.5,17.5z"/>
	<path class="st1" d="M56,109c0-1.4,0-2.8,0-4.2c0.1-2.1,1.8-3.8,3.9-3.8c2.2,0,4,1.7,4,3.9c0,2.8,0,5.6,0,8.4c0,2.2-1.8,3.9-4,3.9
		c-2.2,0-3.9-1.7-4-3.9C56,111.8,56,110.4,56,109z"/>
</g>
<g class="st0">
	<path class="st1" d="M0.7,30.8c0.8-2,2-3.6,4.2-4.2c0.6-0.1,1.2-0.2,1.8-0.2c35.5,0,70.9,0,106.4,0c3.8,0,6.1,2.4,6.1,6.2
		c0,25.7,0,51.5,0,77.2c0,3.7-2.4,6.2-6.2,6.2c-14,0-28.1,0-42.1,0c-1.8,0-2.8-0.9-2.9-2.3c0-1.1,0.6-2,1.7-2.3
		c0.5-0.1,1.1-0.1,1.6-0.1c13.7,0,27.3,0,41,0c2.1,0,2.2-0.1,2.2-2.2c0-17.4,0-34.7,0-52.1c0-0.5,0-0.9,0-1.4
		c-36.4,0-72.8,0-109.2,0c0,0.4-0.1,0.8-0.1,1.3c0,17.5,0,35,0,52.4c0,1.9,0.2,2,2.1,2c13.7,0,27.4,0,41.1,0c0.5,0,1.1,0,1.6,0.1
		c1.1,0.3,1.7,1,1.8,2.1c0,1.1-0.6,2-1.7,2.3c-0.5,0.1-1.1,0.1-1.6,0.1c-13.5,0-27-0.1-40.5,0c-3.6,0-6.1-1.1-7.4-4.6
		C0.7,84.5,0.7,57.7,0.7,30.8z M5.4,50.7c36.5,0,72.8,0,109.2,0c0-0.5,0-0.9,0-1.3c0-5.4,0-10.7,0-16.1c0-2-0.2-2.2-2.3-2.2
		c-34.6,0-69.3,0-103.9,0c-3.1,0-3.1,0-3.1,3.1C5.4,39.6,5.4,45.1,5.4,50.7z"/>
	<path class="st1" d="M59.9,104.6c-5.7,0-11.4,0-17.1,0c-5.4,0-8.6-5.2-5.9-10c5.7-10,11.5-20,17.3-29.9c2.7-4.7,8.8-4.7,11.5,0
		c5.8,9.9,11.6,19.9,17.3,29.9c2.7,4.7-0.4,10-5.8,10C71.4,104.7,65.7,104.6,59.9,104.6z M59.9,100c5.6,0,11.3,0,16.9,0
		c2.3,0,3.1-1.4,2-3.4C73.2,86.9,67.6,77.2,62,67.5c-1.2-2.1-2.7-2.1-3.9,0c-5.6,9.7-11.2,19.3-16.7,29c-1.2,2.2-0.5,3.5,2,3.5
		C48.8,100,54.4,100,59.9,100z"/>
	<path class="st1" d="M32,21.6c-0.6-0.5-1.4-0.8-1.8-1.4c-1.3-2.1-2.6-4.3-3.8-6.5c-0.7-1.2-0.3-2.6,0.8-3.2
		c1.1-0.7,2.5-0.3,3.2,0.9c1.3,2.2,2.6,4.4,3.8,6.6C35.1,19.6,34,21.4,32,21.6z"/>
	<path class="st1" d="M87.9,21.6c-1.9-0.2-3.1-1.9-2.2-3.5c1.2-2.3,2.6-4.6,4-6.9c0.7-1.1,2-1.3,3.1-0.7c1,0.6,1.5,1.9,0.9,3
		c-1.3,2.3-2.6,4.6-4,6.9C89.3,20.9,88.5,21.2,87.9,21.6z"/>
	<path class="st1" d="M62.3,10.1c0,1.1,0,2.2,0,3.3c0,1.8-0.8,2.8-2.3,2.8c-1.4,0-2.3-1-2.3-2.7c0-2.3,0-4.5,0-6.8
		c0-1.6,1-2.7,2.3-2.7c1.4,0,2.3,1.1,2.3,2.8C62.3,7.9,62.3,9,62.3,10.1z"/>
	<path class="st1" d="M62.3,113.5c0,1.3-1,2.4-2.3,2.4c-1.3,0-2.3-1.1-2.3-2.4c0-1.2,1-2.3,2.3-2.3
		C61.2,111.2,62.3,112.3,62.3,113.5z"/>
	<path class="st1" d="M17.2,38.4c1.3,0,2.3,1,2.3,2.3c0,1.3-1,2.3-2.2,2.3c-1.2,0-2.4-1.1-2.4-2.3C14.9,39.5,15.9,38.4,17.2,38.4z"
		/>
	<path class="st1" d="M26.5,38.4c1.3,0,2.3,1.1,2.3,2.4c0,1.2-1.1,2.3-2.3,2.3c-1.2,0-2.4-1.1-2.4-2.3
		C24.2,39.5,25.3,38.4,26.5,38.4z"/>
	<path class="st1" d="M35.8,38.4c1.3,0,2.4,1.1,2.3,2.3c0,1.3-1.2,2.4-2.4,2.3c-1.2,0-2.3-1.1-2.3-2.3
		C33.4,39.5,34.5,38.4,35.8,38.4z"/>
	<path class="st1" d="M62.3,81.5c0,1.5,0,3.1,0,4.6c0,1.4-1,2.5-2.3,2.4c-1.3,0-2.3-1-2.3-2.4c0-3.1,0-6.2,0-9.3
		c0-1.4,1-2.5,2.3-2.5c1.3,0,2.2,1,2.3,2.4C62.3,78.3,62.3,79.9,62.3,81.5z"/>
	<path class="st1" d="M62.4,94.2c0,1.3-1,2.3-2.3,2.4c-1.4,0-2.4-1-2.4-2.4c0-1.3,1-2.3,2.4-2.3C61.4,91.9,62.3,92.9,62.4,94.2z"/>
</g>
<g class="st0">
	<path class="st1" d="M1.5,54.8c0.5-1.9,1.2-3.8,2.6-5.4c2.4-2.8,5.5-4,9.1-3.8c1.2,0.1,1.7-0.3,2.1-1.5c0.7-2,1.6-3.9,2.5-6.2
		c-0.6-0.5-1.4-1.1-2-1.8c-3.7-4-3.9-10.1-0.4-14.2c2-2.3,4.3-4.6,6.6-6.6c4-3.5,10.1-3.3,14.1,0.3c0.7,0.7,1.3,1.5,1.8,2.1
		c2.5-1,4.8-1.9,7-2.8c0.3-0.1,0.5-0.7,0.6-1c0.1-1.3,0-2.7,0.3-4c1-4.9,5.4-8.4,10.4-8.4c2.5,0,5,0,7.5,0c5.7,0,10.5,4.5,10.5,10.2
		c0,2.3,0.6,3.5,2.9,4c1.2,0.3,2.4,0.9,3.5,1.5c0.8,0.4,1.2,0.4,1.8-0.3c1.7-1.9,3.7-3.4,6.3-3.9c3.4-0.7,6.5-0.1,9.1,2.2
		c2.3,2.1,4.6,4.3,6.6,6.6c3.7,4.2,3.4,10.3-0.5,14.4c-0.6,0.6-1.5,1.2-1.7,1.9c-0.1,0.7,0.6,1.5,0.9,2.3c0.6,1.4,1.1,2.7,1.6,4.1
		c0.2,0.6,0.5,0.9,1.2,0.9c1.3,0,2.7,0,4,0.3c4.9,1,8.3,5.4,8.4,10.3c0,2.5,0,5.1,0,7.6c0,5.6-4.6,10.5-10.2,10.5
		c-2.3,0-3.5,0.6-4.1,2.9c-0.4,1.6-1.2,3-2,4.8c0.6,0.6,1.4,1.1,2.1,1.8c3.7,4,3.9,10.1,0.3,14.2c-2,2.3-4.1,4.4-6.4,6.4
		c-4.2,3.7-10.4,3.5-14.5-0.4c-0.6-0.6-1.2-1.3-1.6-1.8c-2.5,1-4.8,1.9-7,2.8c-0.3,0.1-0.5,0.7-0.6,1c-0.2,1.5,0,3-0.4,4.4
		c-1.2,4.1-3.9,6.7-8.2,7.7c-0.2,0.1-0.4,0.1-0.6,0.2c-3.5,0-7,0-10.5,0c-0.2-0.1-0.4-0.2-0.6-0.2c-4.5-1.1-7.3-3.9-8.3-8.4
		c-0.3-1.2-0.1-2.6-0.3-3.9c0-0.3-0.3-0.8-0.6-0.9c-2.2-0.9-4.5-1.8-7.1-2.8c-0.5,0.6-1.1,1.4-1.8,2.1c-4,3.6-10,3.8-14.1,0.3
		c-2.3-2-4.6-4.3-6.6-6.6c-3.6-4.1-3.3-10.2,0.4-14.2c0.6-0.7,1.4-1.3,2-1.8c-0.9-2.2-1.8-4.2-2.5-6.2c-0.4-1.1-0.9-1.5-2.1-1.5
		c-3.6,0.2-6.7-1-9.1-3.8c-1.4-1.6-2-3.4-2.6-5.4C1.5,61.8,1.5,58.3,1.5,54.8z M60.1,8.4c-1.3,0-2.5,0-3.8,0c-2.2,0.1-3.8,1.7-3.9,4
		c0,1.6,0,3.2,0,4.8c0,1.8-0.9,3.1-2.6,3.5c-3.6,1-7,2.4-10.3,4.3c-1.7,0.9-3.1,0.7-4.5-0.6c-1.1-1.1-2.2-2.2-3.3-3.3
		c-1.7-1.7-4-1.7-5.7,0c-1.7,1.6-3.4,3.3-5,5c-1.7,1.7-1.7,3.9,0,5.7c1.1,1.1,2.2,2.2,3.3,3.3c1.3,1.4,1.6,2.8,0.6,4.5
		c-1.9,3.2-3.3,6.7-4.3,10.3c-0.5,1.8-1.7,2.7-3.6,2.7c-1.6,0-3.1,0-4.7,0c-2.3,0-3.9,1.6-4,3.8c-0.1,2.5-0.1,4.9,0,7.4
		c0.1,2.2,1.7,3.8,4,3.8c1.6,0,3.1,0,4.7,0c1.9,0,3.1,0.9,3.7,2.8c1,3.5,2.4,6.9,4.2,10.1c1,1.8,0.8,3.2-0.7,4.6
		c-1.1,1.1-2.2,2.1-3.2,3.2c-1.7,1.7-1.7,3.9,0,5.7c1.6,1.7,3.3,3.4,5,5c1.7,1.7,3.9,1.7,5.7,0c1.1-1.1,2.2-2.2,3.3-3.3
		c1.4-1.3,2.8-1.6,4.5-0.6c3.2,1.9,6.7,3.3,10.3,4.3c1.7,0.5,2.6,1.7,2.7,3.5c0,1.6,0,3.2,0,4.8c0,2.2,1.6,3.9,3.7,4
		c2.5,0.1,5,0.1,7.5,0c2.2-0.1,3.8-1.8,3.8-4c0-1.5,0-3,0-4.6c0-2,0.9-3.2,2.8-3.7c3.5-1,6.9-2.4,10.1-4.2c1.7-1,3.1-0.8,4.6,0.6
		c1.1,1.1,2.2,2.2,3.3,3.3c1.7,1.6,3.9,1.7,5.6,0c1.7-1.7,3.4-3.4,5.1-5.1c1.6-1.7,1.6-3.9,0-5.6c-1.1-1.1-2.2-2.2-3.3-3.3
		c-1.4-1.4-1.6-2.8-0.7-4.6c1.8-3.2,3.2-6.6,4.2-10.2c0.5-1.9,1.7-2.7,3.7-2.7c1.5,0,3,0,4.6,0c2.3,0,4-1.6,4.1-3.9
		c0.1-2.4,0.1-4.9,0-7.3c-0.1-2.3-1.7-3.9-4-3.9c-1.5,0-3,0-4.6,0c-2,0-3.2-0.9-3.7-2.8c-1-3.5-2.3-6.8-4.1-10
		c-1-1.8-0.8-3.2,0.7-4.7c1.1-1.1,2.2-2.1,3.2-3.2c1.6-1.7,1.6-3.9,0-5.6c-1.7-1.7-3.4-3.4-5.1-5.1c-1.7-1.6-3.9-1.6-5.6,0
		c-1.1,1.1-2.2,2.3-3.4,3.4c-1.3,1.3-2.8,1.5-4.4,0.6c-3.3-1.9-6.7-3.3-10.4-4.3c-1.7-0.5-2.6-1.7-2.6-3.5c0-1.6,0-3.1,0-4.7
		c0-2.5-1.6-4.1-4.2-4.1C62.3,8.4,61.2,8.4,60.1,8.4z"/>
	<path class="st1" d="M60,34.5C74,34.5,85.5,46,85.5,60c0,14-11.5,25.5-25.5,25.5c-14-0.1-25.4-11.4-25.4-25.4
		C34.5,46.1,45.9,34.6,60,34.5z M60,41.5c-10.3,0-18.5,8.3-18.5,18.6c0,10.2,8.2,18.5,18.5,18.5c10.3,0,18.6-8.2,18.6-18.5
		C78.5,49.7,70.3,41.5,60,41.5z"/>
</g>
<g class="st0">
	<path class="st1" d="M43.8,86.4C19.1,85.2,0.6,64.5,2.4,40C4,17.8,23.7,0.2,45.7,0.6C70,1,90.1,22,87.9,47.1
		c2.9,0.4,5.9,0.7,8.8,1.2c5.2,0.9,10.4,2.1,15,4.9c1.5,0.9,3.1,2,4.1,3.4c1,1.3,1.7,3.1,1.8,4.7c0.1,14.6,0.1,29.2,0.1,43.8
		c0,3.3-1.7,5.6-4.3,7.1c-3.3,1.8-6.7,3.5-10.3,4.5c-9.7,2.8-19.7,3.3-29.7,2.5c-6.7-0.5-13.3-1.6-19.6-4c-1.4-0.6-2.8-1.2-4.1-1.9
		c-4-2.2-6.2-5.3-5.9-10.2c0.3-4.9,0.1-9.8,0.1-14.7C43.8,87.7,43.8,87.1,43.8,86.4z M83.5,43.5c0.1-21-17.1-38.3-38.3-38.4
		C24.3,5,7,22.1,6.9,43.2C6.7,64.5,23.7,81.7,45,81.8C66.2,81.9,83.4,64.8,83.5,43.5z M113.2,82.9c-1.8,0.9-3.4,1.8-5.1,2.4
		c-7.8,3.1-15.9,4.1-24.2,4.3c-9.2,0.2-18.4-0.4-27.1-3.4c-2.9-1-5.5-0.1-8.3,0.1c0,1.1,0.1,2.1,0,3C48,92,49.3,93.8,51.6,95
		c2,1,4.1,2.1,6.3,2.7c14.3,4,28.6,4.1,43.1,0.8c3.6-0.8,7.2-2,10.2-4.3c0.9-0.7,1.9-1.8,2-2.8C113.3,88.6,113.2,85.8,113.2,82.9z
		 M48.4,98.4c0,1.9,0.1,3.7,0,5.4c-0.2,2.2,0.7,3.8,2.5,4.7c2.3,1.2,4.6,2.5,7.1,3.2c14.2,4.1,28.5,4.1,42.8,0.8
		c3.3-0.8,6.5-2.4,9.6-3.9c1.1-0.5,2.4-1.8,2.6-3c0.4-2.4,0.1-4.8,0.1-7.3C92.7,107.7,69,107.7,48.4,98.4z M113.2,68.4
		c-0.4,0.1-0.6,0.2-0.7,0.3c-4.6,2.7-9.6,4.1-14.7,5.1c-7.3,1.4-14.7,1.7-22.2,1.3c-0.6,0-1.4,0-1.8,0.3c-3.7,2.5-7.4,5.2-11,7.7
		c-0.1,0,0.2,0.1,0.5,0.2c3.2,0.5,6.3,1.1,9.5,1.4c9.8,0.9,19.5,0.6,29.1-2.1c3.1-0.9,6.1-2.3,9-3.8c1-0.5,2.2-1.8,2.3-2.9
		C113.4,73.5,113.2,71,113.2,68.4z M78.4,70.6c0.8,0.1,1.3,0.2,1.8,0.1c3.7-0.2,7.3-0.2,11-0.5c5.7-0.5,11.2-1.6,16.4-4
		c1.5-0.7,3-1.6,4.2-2.7c1.8-1.5,1.8-3.1,0-4.7c-0.9-0.8-1.9-1.5-2.9-2c-3.9-2.1-8.1-3.2-12.4-3.9c-3-0.5-6.1-0.8-9.2-1.2
		C85.8,58.8,82.9,64.9,78.4,70.6z"/>
	<path class="st1" d="M77.8,43.4c0,18-14.5,32.6-32.5,32.7c-18,0-32.7-14.6-32.7-32.5c0-18.1,14.6-32.7,32.7-32.7
		C63.2,10.9,77.7,25.4,77.8,43.4z M73.2,43.5c0-15.6-12.5-28.1-28.1-28c-15.5,0-28.1,12.6-28,28.2c0,15.4,12.7,28,28.1,28
		C60.7,71.6,73.2,59,73.2,43.5z"/>
	<path class="st1" d="M43.9,30.2c0.3-3.1,0.9-4,2.4-4c1.6,0,2.1,0.9,2.3,3.8c1.3,0.8,2.9,1.3,3.8,2.3c1,1.1,1.6,2.7,2,4.1
		c0.4,1.3-0.2,2.5-1.8,2.8c-1.4,0.3-2.3-0.6-2.7-2.2c-0.2-0.7-0.5-1.3-0.8-1.9c-0.2,0-0.4,0.1-0.5,0.1c0,2,0,4,0,5.9
		c0,0.3,0.5,0.7,0.8,0.9c3.5,1.8,5.3,4.6,5,8.6c-0.3,3.7-2.5,5.9-5.9,7.3c0,0.7,0,1.4,0,2.2c-0.1,1.3-0.8,2.1-2.2,2.2
		c-1.4,0.1-2.3-0.8-2.3-2.1c0.1-1.8-0.7-2.5-2.2-3.2c-3-1.6-4.6-5-4.2-8.4c0.2-1.3,1-2,2.2-2c1.4,0,2.1,0.9,2.3,2.3
		c0.3,2.7,0.3,2.7,1.7,4.1c0-2.1-0.1-4,0-5.8c0.2-2-0.3-3.1-2.3-4c-3-1.2-4.3-4.1-4-7.2C38.1,33.2,40.1,31.2,43.9,30.2z M43.9,35.1
		c-0.2-0.1-0.4-0.2-0.6-0.3c-0.4,0.7-1,1.5-1,2.2c0,0.8,0.7,1.5,1.1,2.3c0.2-0.1,0.3-0.2,0.5-0.2C43.9,37.8,43.9,36.4,43.9,35.1z
		 M48.7,47.2c0,1.8,0,3.5,0,5.3C50.4,50.8,50.4,48.9,48.7,47.2z"/>
</g>
<g class="st0">
	<path class="st1" d="M120,87.9c0,1.9,0,3.8,0,5.6c-0.1,0.3-0.2,0.6-0.2,0.9c-1.4,11.5-9.8,21.3-21,24.4c-1.7,0.5-3.4,0.8-5.1,1.2
		c-2,0-3.9,0-5.9,0c-0.3-0.1-0.5-0.2-0.8-0.2c-11-1.6-18.8-7.5-23.4-17.6c-0.5-1.1-1.1-1.4-2.2-1.4c-16.8,0-33.7,0-50.5,0
		c-6.6,0-11.1-4.5-11.1-11c0-23.2,0-46.3,0-69.5C0,12.6,5.5,7,13.3,7c2.1,0,4.2,0,6.4,0c0-1.2,0-2.2,0-3.3c0-2.2,1.4-3.7,3.4-3.8
		c2.1,0,3.6,1.5,3.6,3.8c0,1.1,0,2.2,0,3.2c4.3,0,8.4,0,12.7,0c0-1.1,0-2.1,0-3.2c0-2.3,1.5-3.8,3.6-3.8c2,0,3.4,1.6,3.5,3.8
		c0,1.1,0,2.2,0,3.2c4.3,0,8.4,0,12.7,0c0-1.1,0-2.1,0-3.2c0-2.3,1.5-3.8,3.6-3.8c2,0,3.5,1.6,3.5,3.8c0,1.1,0,2.2,0,3.2
		c4.3,0,8.4,0,12.7,0c0-1.1,0-2.1,0-3.2c0-2.3,1.5-3.8,3.6-3.8c2,0,3.5,1.6,3.5,3.8c0,1.1,0,2.2,0,3.3c2.3,0,4.5,0,6.6,0
		c0.7,0,1.3,0,2,0.1c6.8,1.2,11.1,6.3,11.1,13.3c0,14.6,0,29.2,0,43.8c0,0.8,0.2,1.3,1,1.8c6,3.8,10.1,9.1,12.2,15.9
		C119.2,83.9,119.6,85.9,120,87.9z M61.5,93.8c-1.8-21.5,18.2-36.9,36.9-31.5c0-8.3,0-16.5,0-24.8c-30.5,0-60.9,0-91.4,0
		c0,0.5,0,1,0,1.4c0,16.8,0,33.5,0,50.3c0,3.2,1.3,4.5,4.5,4.5c16.2,0,32.4,0,48.7,0C60.5,93.8,61,93.8,61.5,93.8z M113,90.7
		c0-12.2-10.1-22.3-22.3-22.3c-12.2,0-22.2,10.1-22.2,22.2c0,12.2,10.1,22.3,22.3,22.3C103,113,113,102.9,113,90.7z M7,30.4
		c30.6,0,61,0,91.4,0c0-3.6,0.1-7.2,0-10.7c-0.1-2.6-1.8-4.9-4.2-5.3c-2.7-0.4-5.6-0.3-8.4-0.4c0,1.4,0,2.5,0,3.5
		c0,2.1-1.5,3.6-3.5,3.6c-2,0-3.5-1.5-3.5-3.6c0-1.1,0-2.2,0-3.4c-4.3,0-8.5,0-12.7,0c0,1.2,0,2.3,0,3.4c0,2.1-1.5,3.6-3.5,3.6
		c-2,0-3.5-1.5-3.5-3.6c0-1.1,0-2.2,0-3.4c-4.3,0-8.5,0-12.7,0c0,1.2,0,2.3,0,3.4c0,2.1-1.5,3.6-3.5,3.6c-2,0-3.5-1.5-3.5-3.6
		c0-1.1,0-2.2,0-3.4c-4.3,0-8.5,0-12.7,0c0,1.2,0,2.3,0,3.4c0,2.1-1.5,3.6-3.5,3.6c-2,0-3.5-1.5-3.5-3.6c0-1.1,0-2.2,0-3.4
		c-2.2,0-4.2,0-6.2,0c-0.4,0-0.7,0-1.1,0c-3,0.3-5.3,2.6-5.4,5.6C6.9,23.2,7,26.7,7,30.4z"/>
	<path class="st1" d="M42.3,53.4c-0.9,0-1.9,0-2.8,0c-2.2-0.1-3.7-1.6-3.6-3.6c0-2,1.6-3.4,3.8-3.5c1.8,0,3.6,0,5.4,0
		c2.2,0,3.7,1.5,3.7,3.5c0,2-1.5,3.5-3.7,3.6C44.1,53.4,43.2,53.4,42.3,53.4z"/>
	<path class="st1" d="M63.2,46.2c0.9,0,1.9,0,2.8,0c2,0.1,3.5,1.5,3.6,3.4c0.1,1.9-1.3,3.5-3.3,3.7c-2.1,0.1-4.1,0.1-6.2,0
		c-2.1-0.1-3.5-1.7-3.4-3.7c0.1-1.9,1.6-3.3,3.7-3.3C61.3,46.2,62.3,46.2,63.2,46.2z"/>
	<path class="st1" d="M84.1,46.2c0.9,0,1.9,0,2.8,0c2,0.1,3.6,1.5,3.6,3.4c0.1,2-1.3,3.6-3.4,3.7c-2,0.1-4.1,0.1-6.1,0
		c-2.1-0.1-3.5-1.7-3.4-3.7c0.1-1.9,1.6-3.3,3.7-3.4C82.2,46.2,83.1,46.2,84.1,46.2z"/>
	<path class="st1" d="M21.4,85c-0.9,0-1.8,0-2.7,0c-2.2-0.1-3.8-1.6-3.7-3.7c0-2,1.6-3.4,3.8-3.5c1.8,0,3.6,0,5.4,0
		c2.1,0,3.7,1.5,3.7,3.4c0.1,2-1.4,3.6-3.6,3.7C23.3,85.1,22.4,85,21.4,85C21.4,85,21.4,85,21.4,85z"/>
	<path class="st1" d="M42.4,77.9c0.9,0,1.9,0,2.8,0c2,0.1,3.5,1.5,3.5,3.4c0.1,1.9-1.2,3.6-3.3,3.7c-2.1,0.1-4.2,0.1-6.3,0
		c-2-0.1-3.4-1.7-3.3-3.7c0.1-1.9,1.6-3.3,3.6-3.4C40.4,77.9,41.4,77.9,42.4,77.9z"/>
	<path class="st1" d="M21.3,69.1c-1,0-1.9,0-2.9,0c-2-0.1-3.4-1.6-3.4-3.6c0-1.9,1.5-3.4,3.4-3.4c2,0,4.1,0,6.1,0
		c1.9,0,3.4,1.6,3.4,3.4c0,2-1.4,3.5-3.4,3.6C23.4,69.2,22.4,69.1,21.3,69.1z"/>
	<path class="st1" d="M42.3,69.1c-1,0-2,0-3,0c-2-0.1-3.4-1.6-3.4-3.6c0-1.9,1.5-3.4,3.4-3.4c2,0,4.1,0,6.1,0c1.9,0,3.4,1.6,3.4,3.4
		c0,2-1.4,3.5-3.4,3.6C44.3,69.2,43.3,69.1,42.3,69.1z"/>
	<path class="st1" d="M63.3,62.1c1,0,1.9,0,2.9,0c1.9,0.1,3.4,1.6,3.4,3.4c0,2-1.4,3.5-3.4,3.6c-2,0-4.1,0-6.1,0
		c-2,0-3.4-1.6-3.4-3.6c0-1.9,1.5-3.4,3.4-3.4C61.2,62.1,62.2,62.1,63.3,62.1z"/>
	<path class="st1" d="M94.2,87.2c2.8,0,5.3,0,7.9,0c2.3,0,3.8,1.4,3.8,3.5c0,2.1-1.5,3.5-3.8,3.5c-3.7,0-7.4,0-11.1,0
		c-2.4,0-3.8-1.4-3.8-3.8c0-3.7,0-7.5,0-11.2c0-2.2,1.4-3.7,3.5-3.7c2.1,0,3.5,1.5,3.5,3.8C94.2,81.9,94.2,84.5,94.2,87.2z"/>
</g>
<g class="st0">
	<path class="st1" d="M39.4,103c-1.2,1.2-2.4,2.5-3.6,3.7c-3.4,3.4-8.2,3.4-11.7,0c-3.6-3.6-7.2-7.2-10.8-10.8
		c-3.5-3.6-3.5-8.3,0-11.8c1.2-1.2,2.4-2.4,3.6-3.5c-0.6-1.4-1.1-2.8-1.7-4c-0.1-0.3-0.6-0.6-1-0.6c-1.6-0.1-3.2,0-4.7,0
		c-4.4,0-7.9-3.4-8-7.8c-0.1-5.4-0.1-10.8,0-16.2c0.1-4.4,3.6-7.8,8-7.8c1.6,0,3.2,0,4.7,0c0.3,0,0.8-0.3,1-0.6
		c0.6-1.3,1.1-2.6,1.7-4c-1.2-1.2-2.5-2.4-3.8-3.7c-3.2-3.3-3.3-8-0.1-11.4c3.7-3.8,7.5-7.6,11.3-11.3c3.3-3.2,8.1-3.1,11.4,0.1
		c1.3,1.2,2.5,2.5,3.7,3.8c1.4-0.6,2.7-1.1,4-1.7c0.3-0.1,0.6-0.6,0.6-1c0.1-1.6,0-3.2,0-4.7c0-4.4,3.4-8,7.8-8
		c5.4-0.1,10.8-0.1,16.2,0c4.4,0.1,7.8,3.6,7.8,8c0,1.5,0,3.1,0,4.6c0,0.7,0.2,1,0.9,1.2c1.2,0.5,2.5,1,3.8,1.5
		c1.2-1.2,2.4-2.5,3.6-3.7c3.4-3.4,8.1-3.4,11.6-0.1c3.7,3.6,7.4,7.3,11.1,11.1c3.3,3.4,3.3,8.1-0.1,11.6c-1.2,1.2-2.5,2.4-3.7,3.6
		c0.6,1.4,1.1,2.7,1.7,4c0.1,0.3,0.6,0.6,1,0.6c1.5,0.1,3.1,0,4.6,0c4.5,0,8.1,3.4,8.1,7.8c0.1,5.4,0.1,10.8,0,16.2
		c-0.1,4.5-3.6,7.8-8.1,7.8c-1.5,0-3,0-4.5,0c-0.7,0-1,0.2-1.3,0.9c-0.4,1.2-1,2.5-1.5,3.8c1.2,1.2,2.5,2.4,3.7,3.6
		c3.4,3.4,3.4,8.1,0.1,11.6c-3.6,3.7-7.3,7.4-11.1,11.1c-3.4,3.3-8.2,3.2-11.6-0.1c-1.2-1.2-2.4-2.5-3.6-3.7c-0.7,0.3-1.3,0.7-2,0.8
		c-2.4,0.5-3,2-2.7,4.2c0.2,1.3,0.1,2.8-0.2,4.1c-0.8,3.7-3.9,6.2-7.6,6.3c-5.4,0.1-10.8,0.1-16.2,0c-4.4-0.1-7.8-3.6-7.8-8
		c0-1.6,0-3.2,0-4.7c0-0.3-0.3-0.8-0.6-1C42.2,104.1,40.8,103.6,39.4,103z M60,6.9c-2.5,0-5,0-7.5,0c-2.3,0-3.1,0.9-3.2,3.1
		c0,2.1,0,4.1,0,6.2c0,1.9-0.6,2.6-2.3,3.3c-2.3,0.9-4.5,1.8-6.8,2.8c-1.5,0.6-2.4,0.5-3.6-0.6c-1.5-1.5-3-3.1-4.6-4.6
		c-1.5-1.5-2.9-1.5-4.4,0c-3.6,3.5-7.1,7.1-10.6,10.6c-1.4,1.5-1.4,2.8,0,4.3c1.5,1.5,3,3,4.5,4.5c1.3,1.3,1.4,2.2,0.7,3.9
		c-0.9,2.2-1.8,4.3-2.7,6.5c-0.7,1.8-1.4,2.3-3.3,2.3c-2.1,0-4.1,0-6.2,0c-2.2,0-3.1,0.9-3.1,3.1c0,5,0,10,0,14.9
		c0,2.3,0.9,3.1,3.2,3.1c2.1,0,4.2,0,6.3,0c1.7,0,2.4,0.6,3.1,2.2c0.9,2.3,1.8,4.5,2.8,6.8c0.7,1.6,0.6,2.5-0.6,3.7
		c-1.5,1.5-3.1,3-4.6,4.6c-1.5,1.5-1.5,2.9,0,4.4c3.5,3.5,7,7,10.6,10.6c1.5,1.5,2.9,1.5,4.4,0c1.5-1.5,3-3.1,4.6-4.6
		c1.2-1.2,2.1-1.3,3.7-0.6c2.2,1,4.4,1.9,6.6,2.7c1.7,0.7,2.3,1.4,2.3,3.2c0,2.1,0,4.2,0,6.3c0,2.2,0.9,3.1,3.1,3.1
		c4.9,0,9.9,0,14.8,0c2.4,0,3.2-0.8,3.2-3.2c0-2.2,0-4.3,0-6.5c0-1.6,0.6-2.3,2.1-2.9c2.3-0.9,4.6-1.9,6.9-2.9
		c1.5-0.7,2.5-0.6,3.7,0.6c1.5,1.5,3,3.1,4.6,4.6c1.5,1.5,2.9,1.5,4.3,0c3.6-3.6,7.2-7.1,10.7-10.7c1.4-1.4,1.4-2.8,0-4.2
		c-1.5-1.5-3-3.1-4.6-4.6c-1.3-1.3-1.4-2.2-0.7-3.8c1-2.2,1.9-4.4,2.8-6.6c0.7-1.7,1.4-2.3,3.2-2.3c2.1,0,4.1,0,6.2,0
		c2.3,0,3.2-0.9,3.2-3.2c0-4.9,0-9.9,0-14.8c0-2.4-0.8-3.2-3.2-3.2c-2.1,0-4.2,0-6.3,0c-1.7,0-2.4-0.6-3-2.1
		c-0.9-2.3-1.9-4.6-2.9-6.9c-0.7-1.5-0.5-2.5,0.7-3.7c1.5-1.5,3.1-3,4.6-4.6c1.4-1.5,1.4-2.9,0-4.3c-3.5-3.6-7.1-7.1-10.6-10.6
		c-1.5-1.5-2.9-1.5-4.3,0c-1.5,1.5-3,3.1-4.6,4.6c-1.3,1.2-2.2,1.3-3.8,0.6c-2.2-0.9-4.3-1.9-6.5-2.7c-1.8-0.7-2.4-1.4-2.4-3.3
		c0-2.2,0-4.3,0-6.5c0-2-1-2.9-2.9-2.9C65.1,6.9,62.6,6.9,60,6.9z"/>
	<path class="st1" d="M36.9,77.7c2.3-7.6,7-12.8,14-16c-6.8-7.2-4.1-15.8,0.6-19.7c5.2-4.4,12.9-4.1,17.9,0.7c4.5,4.4,6,12.5-0.2,19
		c7,3.2,11.7,8.4,14,16c2.2-2.9,3.8-5.9,4.7-9.1c2.8-9.8,1.1-18.7-5.1-26.9c-0.5-0.7-1-1.6-1-2.4c-0.1-1.1,0.7-2,1.7-2.3
		c1.2-0.4,2.3,0,3.1,1c2.7,3.3,4.8,7,6.2,11c6.8,19.9-6,41.5-26.8,45.1c-19.1,3.3-37.3-9.8-40.1-28.9C23.1,46.6,35.5,29.3,54,26
		c8.4-1.5,16.3,0,23.7,4.4c1.3,0.8,1.8,1.8,1.5,3c-0.3,1.2-1.1,2-2.3,2.1c-0.7,0-1.6-0.2-2.2-0.6c-4.8-2.8-10-4-15.6-4
		c-13,0.2-24.8,9.7-27.6,22.4c-1.9,8.4-0.4,16.2,4.4,23.3C36.2,76.9,36.5,77.2,36.9,77.7z M59.5,89.2c6.9,0,12.8-2,18-5.8
		c0.6-0.4,1-0.9,0.9-1.7c-1.4-10.3-10.6-17.8-21.3-16c-8.3,1.3-14,7.2-15.4,15.5c-0.2,1,0.1,1.7,0.9,2.3
		C47.8,87.2,53.5,89.1,59.5,89.2z M60,60c4.3,0,7.9-3.5,7.9-7.9c0-4.4-3.4-7.8-7.8-7.8c-4.4,0-7.9,3.3-8,7.8
		C52.1,56.4,55.6,60,60,60z"/>
</g>
<g class="st0">
	<path class="st1" d="M59.9,65.3c-15.7,0-31.4,0-47.1,0c-2,0-3.7-0.5-4.9-2.2c-1.2-1.7-1.4-3.5-0.5-5.4c0.9-1.9,2.4-2.9,4.5-3
		c0.3,0,0.7,0,1,0c31.4,0,62.8,0,94.2,0c2.6,0,4.6,0.8,5.6,3.2c1.5,3.4-0.9,7.2-4.6,7.3c-2.9,0.1-5.7,0-8.6,0
		C86.3,65.3,73.1,65.3,59.9,65.3z"/>
	<path class="st1" d="M73.2,33.4c-11.4,0-22.8,0-34.1,0c-3.1,0-5.2-1.7-5.6-4.7C33,26,35.2,23.1,38,22.9c0.5,0,1,0,1.5,0
		c22.6,0,45.1,0,67.7,0c1.9,0,3.5,0.4,4.8,1.9c1.4,1.7,1.6,3.6,0.8,5.6c-0.9,2.1-2.6,3.1-5,3.1C96.2,33.4,84.7,33.4,73.2,33.4z"/>
	<path class="st1" d="M83.9,97.2c-7.9,0-15.9,0-23.8,0c-3.5,0-5.7-2.6-5.4-6c0.2-2.2,2.2-4.3,4.5-4.5c0.4,0,0.8,0,1.2,0
		c15.6,0,31.2,0,46.9,0c2.5,0,4.4,0.9,5.4,3.2c1.5,3.5-1,7.3-4.9,7.3C99.9,97.2,91.9,97.2,83.9,97.2z"/>
</g>
<g class="st0">
	<path class="st1" d="M57.9,117.8c-1.9-0.6-3.9-1-5.6-1.9c-4.5-2.2-7.4-5.8-8.7-10.7c-0.2-0.8-0.6-1-1.4-1c-9.7,0-19.5,0-29.2,0
		c-1.6,0-2.9-0.5-3.6-2c-0.7-1.5-0.2-2.8,0.9-4c7.1-7.5,11.7-16.3,13.6-26.5c0.6-3.5,0.8-7.1,1-10.6c0.2-3.5,0-7.1,0-10.6
		c0-14.8,9.7-28.2,23.8-32.9c0.3-0.1,0.6-0.2,1-0.4c0-1.7,0-3.3,0-5c0-5.6,4.6-10,10.2-10c5.5,0,10.1,4.5,10.1,10c0,1.7,0,3.3,0,5
		c4.3,1.4,8.2,3.4,11.7,6.2c7.5,6.1,12,13.9,12.9,23.6c0.4,4.3,0.3,8.7,0.2,13.1c-0.1,10.8,2.4,20.9,8.3,29.9
		c1.9,2.9,4.2,5.6,6.4,8.3c1.8,2.2,1.2,5-1.3,5.8c-0.5,0.1-1,0.1-1.4,0.1c-9.7,0-19.4,0-29.1,0c-0.9,0-1.2,0.3-1.5,1.1
		c-2.1,6.8-6.7,10.9-13.8,12.2c-0.2,0-0.3,0.1-0.5,0.2C60.6,117.8,59.2,117.8,57.9,117.8z M20.1,97.4c26.6,0,53.1,0,79.9,0
		c-0.4-0.6-0.7-1-1-1.5c-6.1-8.8-9.8-18.6-10.5-29.3c-0.3-4.6-0.2-9.3-0.3-14c-0.1-2.1-0.1-4.3-0.4-6.4c-2.3-15.6-18-26.4-33.3-23.1
		c-13.5,2.9-22.7,14.2-22.7,28c0,3.8,0,7.6,0,11.4c-0.1,9.7-2.5,18.9-7.1,27.4C23.2,92.5,21.6,94.9,20.1,97.4z M50.5,104.3
		c0.9,3.8,5.4,6.9,9.7,6.7c4.2-0.1,8.5-3.3,9.1-6.7C63,104.3,56.8,104.3,50.5,104.3z M63.3,15.8c0-1,0-2,0-3c0-0.3,0-0.6-0.1-0.9
		C62.9,10.2,61.6,9,60,9c-1.6-0.1-3.1,1.1-3.3,2.7c-0.2,1.3,0,2.7,0,4.1C58.9,15.8,61,15.8,63.3,15.8z"/>
	<path class="st1" d="M9.1,49.2c0.5-13.3,5.4-24.8,14.8-34.3c1.4-1.4,3.5-1.5,4.9-0.2c1.4,1.4,1.4,3.5-0.1,5
		c-4.4,4.5-7.7,9.6-10,15.5c-1.9,5-2.7,10.1-2.8,15.4c0,1.4-0.6,2.4-1.8,3c-1.2,0.6-2.5,0.6-3.5-0.3c-0.7-0.6-1.1-1.6-1.4-2.5
		C9,50.4,9.1,49.8,9.1,49.2z"/>
	<path class="st1" d="M110.7,49.3c0,0.5,0,0.9,0,1.4c0,1.9-1.4,3.4-3.3,3.4c-1.9,0-3.4-1.4-3.5-3.4c-0.1-6.4-1.3-12.6-4.1-18.4
		c-2.2-4.6-5-8.8-8.6-12.4c-1.8-1.9-1.6-4.5,0.5-5.6c1.4-0.8,3-0.5,4.2,0.7c6.9,7,11.5,15.3,13.5,24.9c0.7,3.1,0.9,6.3,1.4,9.4
		C110.9,49.3,110.8,49.3,110.7,49.3z"/>
</g>
<g class="st0">
	<path class="st1" d="M111.3,3.6c1.4,0.6,2.7,1.3,3.3,2.8c0.8,1.9,0.3,3.6-0.8,5.3c-4.8,6.7-9.5,13.4-14.3,20.1
		C92.3,42,85,52.2,77.8,62.4c-1.8,2.5-2.6,5.2-2.6,8.2c0,10.8,0,21.5,0,32.3c0,3.3-0.8,4.4-3.9,5.6c-6.5,2.5-13,5-19.5,7.4
		c-2.9,1.1-5.5,0.2-6.5-2.2c-0.4-0.8-0.5-1.9-0.5-2.8c0-13.5-0.1-27,0-40.4c0-3-0.8-5.6-2.6-8.1c-12-16.9-24-33.8-36-50.7
		C4.3,9,4.6,6.2,7,4.5C7.5,4.1,8,3.9,8.6,3.6C42.8,3.6,77.1,3.6,111.3,3.6z M11.7,9.4c0.3,0.4,0.5,0.7,0.7,1
		c11.5,16.2,23,32.4,34.5,48.7c0.8,1.1,1.4,2.2,2.1,3.4c1.3,2.5,1.6,5.1,1.6,7.9c0,12.8,0,25.6,0,38.4c0,0.4,0,0.9,0,1.5
		c0.6-0.2,0.9-0.3,1.3-0.4c5.5-2.1,11-4.2,16.5-6.3c0.8-0.3,1.1-0.7,1.1-1.6c0-10.5,0-20.9,0-31.4c0-4.2,1.2-8,3.6-11.4
		C84.5,43,96,26.8,107.5,10.6c0.3-0.4,0.5-0.8,0.9-1.3C76,9.4,43.9,9.4,11.7,9.4z"/>
</g>
<g class="st0">
	<path class="st2" d="M5.3,110.4c0.4-2.1,0.9-4.1,1.3-6.2C7.8,97.6,9,91,10.3,84.4c0.2-0.9,0.9-1.9,1.5-2.6
		C31.7,61.9,51.7,42,71.6,22c3.7-3.7,7.5-7.4,11.2-11.3c2.5-2.6,5.2-4.9,9-5.4c0.9,0,1.9,0,2.8,0c0.6,0.2,1.3,0.3,1.9,0.5
		c2,0.6,3.7,1.7,5.1,3.2c3.1,3.1,6.3,6.2,9.4,9.4c5,5,5,12,0,17C86.6,59.7,62.3,84,38,108.3c-0.7,0.7-1.7,1.2-2.6,1.4
		c-8.6,1.7-17.3,3.3-26,4.9c-1.8,0.3-2.9-0.3-4.1-2.3C5.3,111.7,5.3,111,5.3,110.4z M35.1,101.7c21-21,41.9-41.9,62.8-62.7
		c-5.6-5.6-11.3-11.3-16.8-16.8C60.2,42.9,39.2,63.9,18.3,84.8C23.9,90.4,29.6,96.1,35.1,101.7z M102.9,34.3
		c1.1-1.1,2.3-2.3,3.4-3.4c2.5-2.6,2.5-5.5,0-8.1c-2.6-2.6-5.2-5.2-7.8-7.8c-0.7-0.7-1.4-1.5-2.2-2.1c-1.8-1.4-4.4-1.5-6.1-0.1
		c-1.6,1.4-2.9,3-4.3,4.4C91.4,22.8,97.1,28.5,102.9,34.3z M28.3,104.5c-4.3-4.3-8.6-8.6-12.8-12.8c-1,5.1-1.9,10.4-2.9,15.8
		C17.9,106.4,23.2,105.5,28.3,104.5z"/>
</g>
<g class="st0">
	<path class="st2" d="M116.3,60.9c-4.5,8-10.5,14.7-17.6,20.4c-7.8,6.2-16.4,10.6-26.2,12.6c-13.7,2.8-26.9,1.2-39.4-5.1
		c-11.9-6-21.2-15-28.4-26.2c-1.2-1.8-1.2-3.5,0-5.3C13.2,44,24.5,34,39.5,28.4c8.1-3,16.4-4.1,25-3.4c16,1.2,29.2,8.2,40.5,19.4
		c4,3.9,7.4,8.3,10.4,13c0.3,0.6,0.6,1.1,1,1.7C116.3,59.7,116.3,60.3,116.3,60.9z M108.7,59.8c-2.1-2.6-4.1-5.3-6.4-7.8
		C91.8,40.5,79.1,33,63.1,32c-7-0.5-13.7,0.5-20.3,2.8c-13.1,4.7-23.1,13.3-31,24.5c-0.4,0.6-0.2,1,0.1,1.5
		c4.8,6.9,10.6,12.9,17.6,17.6c14,9.4,29.1,12.1,45.4,7.5c8.5-2.4,15.9-7,22.4-12.9C101.6,69.1,105.4,64.8,108.7,59.8z"/>
	<path class="st2" d="M81.1,60c0,11.7-9.5,21.1-21.2,21.1c-11.6,0-21-9.5-21-21.1c0-11.7,9.5-21.1,21.2-21.1
		C71.7,38.9,81.1,48.3,81.1,60z M45.9,60c0,7.7,6.4,14.1,14,14.1c7.7,0,14.1-6.3,14.1-14c0-7.7-6.4-14.2-14.1-14.1
		C52.3,45.9,45.9,52.3,45.9,60z"/>
</g>
<g class="st0">
	<path class="st2" d="M60.2,110.1c-11.8,0-23.5,0.1-35.3,0c-5.6,0-10.2-2.2-13-7.3c-1.2-2.2-1.7-4.6-1.7-7.1
		c-0.1-13.4-0.1-26.8-0.1-40.2c0-3.9,2.8-6,6.5-5.1c1.9,0.5,3.2,1.9,3.5,3.9c0.1,0.7,0.1,1.4,0.1,2.1c0,12.9,0.1,25.9,0.1,38.8
		c0,0.9,0.2,1.9,0.7,2.8c0.7,1.5,2.2,2,3.8,2.1c1.7,0,3.4,0.1,5,0.1c20,0,40.1,0,60.1,0c1.9,0,3.7,0,5.6-0.1
		c2.8-0.1,4.4-1.7,4.5-4.5c0.1-2.4,0.1-4.8,0.1-7.1c0-10.7,0-21.4,0-32.1c0-0.7,0-1.5,0.1-2.2c0.3-2.3,2.4-3.9,4.9-3.9
		c2.5,0,4.5,1.6,4.9,3.9c0.1,0.5,0.1,1,0.1,1.5c0,13.3,0,26.6-0.1,40c0,5.5-2.2,10-7.2,12.8c-2.3,1.3-4.9,1.7-7.6,1.8
		C83.7,110.2,72,110.1,60.2,110.1z"/>
	<path class="st2" d="M54.7,27.2c-0.2,0.4-0.3,0.8-0.6,1.1c-3.4,3.4-6.8,6.9-10.3,10.3c-1.4,1.4-3.1,2-5,1.4c-1.9-0.6-3.1-2-3.5-4
		c-0.3-1.7,0.3-3.1,1.5-4.3c1.9-1.9,3.8-3.8,5.7-5.7c4.6-4.6,9.3-9.3,13.9-13.9c2.4-2.4,5.1-2.5,7.6,0c6.5,6.5,13,13,19.5,19.5
		c1.5,1.5,2.2,3.2,1.5,5.3c-0.7,1.9-2.1,3.1-4.1,3.5c-1.8,0.3-3.2-0.4-4.4-1.7c-3.4-3.4-6.7-6.7-10.1-10.1c-0.3-0.3-0.6-0.6-1.1-1.1
		c0,0.7,0,1.2,0,1.6c0,15,0,30,0,45c0,0.5,0,1,0,1.5c-0.2,3-2,4.8-5,4.8c-3,0-4.8-1.8-5-4.8c0-0.5,0-0.9,0-1.4c0-15,0-30,0-45
		c0-0.5,0-0.9,0-1.4C55,27.5,54.9,27.4,54.7,27.2z"/>
</g>
<g>
	<path d="M61.1,3.9c2.7,1,3.6,3.1,3.6,5.9c-0.1,11.8,0,23.5,0,35.3c0,0.8,0,1.6-0.2,2.3c-0.6,2.2-2.7,3.5-4.9,3.3
		c-2.2-0.2-3.9-1.9-4.1-4.1c-0.1-0.5-0.1-1.1-0.1-1.6c0-11.7,0-23.4,0-35c0-2.8,0.9-4.9,3.6-5.9C59.6,3.9,60.4,3.9,61.1,3.9z"/>
	<path d="M8.6,62.4c0.6-16,8.1-30.4,23.2-40.6c2.2-1.5,4.7-2.7,7.2-3.9c2.7-1.3,5.4-0.4,6.6,2.1c1.1,2.5,0.1,5.1-2.6,6.3
		C35.3,29.7,29.2,35,24.6,42c-14.3,22.1-4.4,52.5,20.2,61.8c23,8.8,48-3.3,55.4-26.8c6.3-19.9-3.5-41.9-22.5-50.5
		c-1.9-0.8-3.4-1.9-3.6-4.1c-0.4-3.8,3.2-6.3,6.7-4.8c4.5,2,8.7,4.6,12.5,7.8c10.1,8.7,16.1,19.6,17.8,32.8
		c3.5,26.5-14.4,51.4-40.5,56.8c-26.2,5.3-51.7-9.8-59.6-35.4C9.3,74.7,8.6,69.7,8.6,62.4z"/>
</g>
</svg>
