
<svg x="0px" y="0px"
	 viewBox="0 0 500 500" xml:space="preserve">
<g>
	<path d="M432,5.2c9.6,2.7,17.1,7.6,19.3,18.1c0.4,2,0.5,4.1,0.5,6.2c0,28.8,0,57.5,0,86.3c0,14.1-9.1,23.4-23.1,23.4
		c-29.1,0.1-58.2,0.1-87.3,0c-10.6,0-18.4-5-21.8-13.9c-3.6-9.5-1.3-17.7,5.8-24.8c7.9-7.9,15.9-15.7,24.8-24.5
		c-9.2-4.3-17.4-8.6-26-12C208.9,19,81.1,87.7,54.6,208.8c-23.7,108.7,47.7,217.6,156.5,239c108.6,21.3,211.8-45.9,236-154
		c3-13.3,3.8-27.2,4.6-40.9c0.8-12.5,7.7-22.2,18.5-23.8c12.6-1.8,22.1,4.8,25.8,18c0.2,0.6,0.5,1.2,0.8,1.9c0,3.5,0,7,0,10.5
		c-0.3,2-0.7,4-0.9,6.1c-1.2,10.2-1.6,20.5-3.6,30.5c-11.9,60.6-41.9,110.4-90.4,148.6c-34,26.8-72.7,43.2-115.6,49.2
		c-8.9,1.3-17.9,2.1-26.8,3.1c-5.6,0-11.2,0-16.7,0c-10.2-1.1-20.4-1.7-30.5-3.5c-60.1-10.3-110.2-38.4-149.5-85.1
		C33,372.9,14.8,332.1,8.3,286.2c-1.3-8.9-2.1-17.9-3.1-26.8c0-5.6,0-11.2,0-16.7c0.3-2.2,0.6-4.4,0.9-6.6
		c1.5-11.9,2.2-23.9,4.8-35.6c12.6-57.9,42-105.6,88.5-142.3c34.2-27.1,73.1-43.8,116.5-49.9c8.6-1.2,17.2-2,25.8-3
		c6.3,0,12.6,0,18.8,0c1.5,0.3,3,0.8,4.6,0.9c40.9,2.1,78.7,14,113.6,35.3c3,1.8,4.7,1.5,7-0.9c7.6-7.9,15.6-15.4,23.2-23.3
		c5.4-5.7,11.1-10.4,19-11.9C429.2,5.2,430.6,5.2,432,5.2z"/>
</g>
</svg>
