<?xml version="1.0" encoding="utf-8"?>
<!-- Generator: Adobe Illustrator 26.0.3, SVG Export Plug-In . SVG Version: 6.00 Build 0)  -->
<svg version="1.1" id="Layer_1" xmlns="http://www.w3.org/2000/svg" xmlns:xlink="http://www.w3.org/1999/xlink" x="0px" y="0px"
	 width="50px" height="50px" viewBox="0 0 50 50" style="enable-background:new 0 0 50 50;" xml:space="preserve">
<style type="text/css">
	.st0{fill:#FFFFFF;}
</style>
<g>
	<g>
		<path class="st0" d="M1.9,21.7c0.2-0.2,0.5-0.4,0.7-0.5c1.4-0.4,2.7-0.7,4.1-1.1C7,20,7.1,19.9,7.2,19.7c0.5-1.2,1-2.5,1.5-3.7
			c0.1-0.2,0.1-0.4,0-0.6c-0.7-1.2-1.5-2.5-2.2-3.7c-0.3-0.5-0.3-0.7,0.1-1.2c1.3-1.3,2.6-2.6,4-4C11,6.1,11.2,6,11.8,6.4
			C13,7.2,14.3,8,15.5,8.7c0.1,0.1,0.4,0.1,0.6,0c1.2-0.5,2.5-1,3.7-1.5C20,7.1,20.1,7,20.2,6.7c0.4-1.4,0.7-2.8,1.1-4.2
			c0.1-0.4,0.4-0.7,0.8-0.7c1.9,0,3.8,0,5.7,0c0.5,0,0.7,0.1,0.9,0.7c0.4,1.4,0.7,2.8,1.1,4.1C29.9,6.9,30,7,30.3,7.1
			c1.2,0.5,2.4,1,3.7,1.5c0.3,0.1,0.4,0.1,0.7,0c1.2-0.7,2.4-1.4,3.7-2.2c0.5-0.3,0.7-0.3,1.2,0.2c1.3,1.3,2.6,2.6,3.9,3.9
			c0.5,0.5,0.5,0.7,0.1,1.2c-0.7,1.2-1.4,2.4-2.1,3.6c-0.2,0.3-0.1,0.4,0,0.7c0.5,1.2,1,2.4,1.5,3.6c0.1,0.3,0.2,0.4,0.5,0.5
			c1.4,0.3,2.8,0.7,4.1,1.1c0.5,0.1,0.7,0.3,0.7,0.9c0,1.9,0,3.8,0,5.7c0,0.5-0.2,0.7-0.6,0.8c-1.4,0.3-2.8,0.7-4.1,1.1
			c-0.3,0.1-0.4,0.2-0.5,0.5c-0.5,1.2-1,2.4-1.5,3.6c-0.1,0.3-0.2,0.5,0,0.7c0.7,1.2,1.4,2.4,2.1,3.6c0.3,0.5,0.3,0.8-0.1,1.2
			c-1.3,1.3-2.6,2.6-4,4c-0.4,0.4-0.6,0.5-1.2,0.2c-1.2-0.7-2.5-1.4-3.7-2.2c-0.2-0.1-0.4-0.1-0.6,0c-1.2,0.5-2.5,1-3.7,1.5
			C30.1,42.9,30,43,30,43.3c-0.3,1.4-0.7,2.7-1.1,4.1c-0.1,0.3-0.3,0.5-0.5,0.8c-2.2,0-4.3,0-6.5,0c-0.2-0.2-0.4-0.5-0.5-0.7
			c-0.4-1.3-0.7-2.7-1.1-4.1c-0.1-0.3-0.2-0.4-0.5-0.5c-1.2-0.5-2.4-0.9-3.6-1.5c-0.3-0.1-0.5-0.1-0.8,0c-1.2,0.7-2.4,1.4-3.6,2.1
			c-0.5,0.3-0.7,0.3-1.2-0.2c-0.3-0.3-0.6-0.5-0.8-0.8c-0.3-0.3-0.3-0.7,0-1s0.7-0.3,1,0c0.7,0.6,0.7,0.6,1.4,0.1
			c1-0.6,2.1-1.2,3.1-1.8c0.4-0.2,0.7-0.2,1,0c1.4,0.8,2.8,1.4,4.4,1.8c0.4,0.1,0.6,0.3,0.7,0.7c0.3,1.4,0.7,2.7,1,4.1
			c0.1,0.3,0.2,0.3,0.4,0.3c1.4,0,2.9,0,4.3,0c0.3,0,0.4-0.1,0.4-0.4c0.3-1.3,0.7-2.7,1-4c0.1-0.4,0.3-0.6,0.7-0.8
			c1.5-0.4,3-1,4.4-1.8c0.4-0.2,0.7-0.2,1.1,0c1.2,0.7,2.4,1.4,3.5,2.1c0.2,0.1,0.4,0.1,0.6-0.1c1-1,2-2,3-3
			c0.2-0.2,0.2-0.4,0.1-0.6c-0.7-1.2-1.4-2.3-2.1-3.5c-0.2-0.4-0.2-0.7,0-1.1c0.8-1.4,1.4-2.8,1.8-4.3c0.1-0.4,0.3-0.7,0.8-0.8
			c1.3-0.3,2.7-0.7,4-1c0.2-0.1,0.3-0.2,0.3-0.4c0-1.4,0-2.9,0-4.3c0-0.3-0.1-0.4-0.4-0.4c-1.3-0.3-2.7-0.7-4-1
			c-0.4-0.1-0.7-0.3-0.8-0.7c-0.4-1.5-1-3-1.8-4.4c-0.2-0.4-0.2-0.7,0-1.1c0.7-1.2,1.4-2.4,2.1-3.5c0.1-0.2,0.1-0.4-0.1-0.6
			c-1-1-2-2-3-3c-0.2-0.2-0.4-0.2-0.6-0.1c-1.2,0.7-2.3,1.4-3.5,2.1c-0.4,0.2-0.7,0.3-1.1,0c-1.4-0.8-2.8-1.4-4.3-1.8
			c-0.4-0.1-0.7-0.3-0.8-0.8c-0.3-1.3-0.7-2.7-1-4c-0.1-0.2-0.2-0.3-0.4-0.3c-1.4,0-2.9,0-4.3,0c-0.3,0-0.4,0.1-0.4,0.4
			c-0.3,1.3-0.7,2.7-1,4c-0.1,0.4-0.3,0.6-0.7,0.8c-1.5,0.4-3,1-4.4,1.8c-0.4,0.2-0.7,0.2-1.1,0C14,9.4,12.9,8.7,11.7,8
			c-0.2-0.1-0.4-0.1-0.6,0.1c-1,1-2,2-3,3c-0.2,0.2-0.2,0.4-0.1,0.6c0.7,1.1,1.4,2.3,2.1,3.5c0.3,0.4,0.3,0.8,0,1.2
			c-0.8,1.3-1.4,2.7-1.7,4.2C8.2,21,8,21.3,7.6,21.4c-1.4,0.3-2.7,0.7-4.1,1.1c-0.1,0-0.3,0.2-0.3,0.3c0,1.6,0,3.2,0,4.8
			c1.5,0.4,2.9,0.8,4.3,1.1C8,28.8,8.2,29,8.3,29.5c0.4,1.5,1,2.9,1.8,4.3c0.2,0.4,0.2,0.7,0,1.1C9.4,36,8.7,37.2,8,38.3
			c-0.1,0.2-0.2,0.4,0.1,0.6c0.2,0.2,0.4,0.4,0.5,0.5c0.3,0.3,0.2,0.7,0,0.9c-0.3,0.3-0.7,0.3-0.9,0c-0.4-0.4-0.8-0.8-1.2-1.2
			c-0.3-0.3-0.2-0.6,0-1c0.7-1.2,1.4-2.5,2.2-3.7c0.1-0.2,0.1-0.4,0-0.7c-0.5-1.2-1-2.4-1.5-3.6c-0.1-0.3-0.2-0.4-0.5-0.5
			c-1.3-0.3-2.7-0.7-4-1c-0.3-0.1-0.5-0.3-0.8-0.5C1.9,26.1,1.9,23.9,1.9,21.7z"/>
		<path class="st0" d="M10.2,25c0.1-7.3,5.3-13.4,12.5-14.6c0.3,0,0.5-0.1,0.8-0.1c0.4,0,0.7,0.2,0.8,0.6c0,0.4-0.2,0.7-0.7,0.8
			c-0.9,0.2-1.9,0.3-2.8,0.6c-5,1.8-8.1,5.3-8.9,10.6c-1.1,6.9,3.1,13.2,9.8,15c7.4,2,15.1-2.9,16.5-10.4c1.4-7.2-3.1-14-10.3-15.6
			c-0.4-0.1-0.9-0.2-1.3-0.2c-0.5-0.1-0.8-0.3-0.7-0.8c0-0.4,0.3-0.6,0.8-0.6c2.5,0.3,4.8,1.2,6.9,2.7c3.4,2.5,5.5,5.8,6.1,10
			c0.9,6.4-2.6,12.7-8.4,15.4c-8.6,4-18.7-1.1-20.6-10.3C10.4,27.1,10.3,26,10.2,25z"/>
	</g>
	<g>
		<path class="st0" d="M25.2,26.2c-2.7,0.1-5.3-1.9-5.5-5c-0.2-2.8,1.9-5.2,4.6-5.5c3.1-0.4,5.8,1.9,5.9,5
			C30.4,23.4,28.3,26.1,25.2,26.2z M28.9,20.9c0.1-2.1-1.6-3.9-3.6-4c-2.4-0.1-4.2,1.8-4.2,3.9c0,2,1.7,3.8,3.7,3.9
			C27.1,24.9,28.9,23,28.9,20.9z"/>
		<path class="st0" d="M25,28c3.6,0.2,6.4,1.6,8.4,4.2c0.2,0.3,0.5,0.7,0.7,1c0.3,0.4,0.2,0.8-0.2,1.1c-0.3,0.2-0.7,0.1-1-0.3
			c-0.4-0.6-0.9-1.2-1.4-1.7c-1.1-1.2-2.4-2-3.9-2.4c-2.3-0.7-4.5-0.5-6.6,0.5c-1.7,0.8-3,2-3.9,3.7c-0.2,0.4-0.6,0.5-0.9,0.3
			c-0.4-0.2-0.5-0.6-0.3-1c0.5-0.9,1.1-1.6,1.8-2.3c1.5-1.5,3.3-2.4,5.4-2.8C23.7,28.1,24.5,28.1,25,28z"/>
	</g>
</g>
</svg>
