<?xml version="1.0" encoding="utf-8"?>
<!-- Generator: Adobe Illustrator 26.0.3, SVG Export Plug-In . SVG Version: 6.00 Build 0)  -->
<svg version="1.1" id="Layer_1" xmlns="http://www.w3.org/2000/svg" xmlns:xlink="http://www.w3.org/1999/xlink" x="0px" y="0px"
	 width="50px" height="50px" viewBox="0 0 50 50" style="enable-background:new 0 0 50 50;" xml:space="preserve">
<style type="text/css">
	.st0{fill:#FFFFFF;}
</style>
<g>
	<path class="st0" d="M1.5,38.1c0.1-0.5,0.2-1,0.4-1.5c0.9-2.2,2.5-3.5,4.8-4c0.7-0.2,1.5-0.3,2.2-0.5c0.2-0.1,0.5-0.2,0.5-0.3
		c0-0.4,0.2-0.8-0.3-1.1C8.1,30,7.4,29,7,27.8c-0.2-0.6-0.3-1.2-0.3-1.8c0-1.4,0-2.8,0-4.2c0-3,2.5-5.5,5.5-5.6
		c2-0.1,3.5,0.3,5.1,1.8c1.4-3.6,4-5.6,7.9-5.6c3.8,0,6.2,2.1,7.6,5.6c0.8-0.8,1.7-1.4,2.8-1.7c3.5-0.8,6.5,0.7,7.5,3.9
		c0.2,0.5,0.2,1.1,0.3,1.6c0,1.4,0,2.7,0,4.1c0,2-0.9,3.6-2.5,4.8c-0.5,0.3-0.3,0.7-0.3,1.1c0,0.1,0.3,0.2,0.5,0.3
		c0.8,0.2,1.7,0.4,2.5,0.6c3,0.7,4.9,3.2,4.9,6.3c0,0.8,0,1.6,0,2.4c0,0.8-0.3,1.1-1.2,1.2c-2.2,0-4.4,0-6.6,0c-0.2,0-0.3,0-0.5,0
		c0,1.4,0,2.7,0,4c0.2,0,0.4,0,0.5,0c1.6,0,3.1,0,4.7,0c0.7,0,1,0.2,1.2,0.6c0.2,0.4,0,0.8-0.6,1.2c-14,0-28,0-42,0
		c-0.6-0.4-0.7-0.7-0.6-1.2c0.2-0.5,0.5-0.6,1.2-0.6c1.6,0,3.1,0,4.7,0c0.2,0,0.3,0,0.5,0c0-1.4,0-2.7,0-4c-0.1,0-0.3,0-0.5,0
		c-2.2,0-4.4,0-6.5,0c-0.6,0-1-0.1-1.2-0.6C1.5,40.7,1.5,39.4,1.5,38.1z M18.8,22.5c0,1.2-0.1,2.3,0,3.5c0.3,2.6,2.3,4.8,4.8,5.3
		c2.6,0.5,5.2-0.6,6.6-2.8c1.2-1.8,0.9-3.9,0.9-5.9c-1.9,0.1-3.4-0.7-4.4-2.3c-1.2,0.8-2.4,1.5-3.8,1.9
		C21.6,22.5,20.2,22.6,18.8,22.5z M22.7,46.6c-2.8-2.8-5.5-5.5-8.3-8.3c-0.7,0.5-1.2,1.1-1.7,1.8c-1.3,2-1,4.3-1.1,6.5
		C15.3,46.6,19,46.6,22.7,46.6z M38.3,46.6c0-1.3,0.1-2.5,0-3.7c-0.2-1.9-1.1-3.4-2.6-4.5c-2.8,2.8-5.5,5.5-8.3,8.3
		C31,46.6,34.7,46.6,38.3,46.6z M18.8,20.7c2.3,0.1,4.5-0.3,6.4-1.6c0.8-0.6,1.5-1.3,2.3-2c0.5-0.5,1-0.5,1.4-0.2
		c0.4,0.4,0.4,0.9-0.1,1.4c-0.2,0.2-0.4,0.5-0.6,0.7c0.6,1.2,1.8,1.9,3,1.6c0.1-3.3-2.6-6.3-6.1-6.4C21.6,14.2,18.7,17.1,18.8,20.7z
		 M8.6,24.1c0,0.7,0,1.6,0,2.4c0,0.7,0.3,1.3,0.8,1.9c1.1,1.4,2.7,1.7,4.3,1.4c1.5-0.2,2.5-1.1,3-2.5c0.4-1.1,0.2-2.2,0.3-3.2
		c-1-0.2-2-0.3-2.9-0.7c-0.9-0.4-1.7-0.4-2.6,0C10.5,23.8,9.5,23.9,8.6,24.1z M33.1,24c0,0.7,0,1.3,0,2c0.1,2.1,1.4,3.6,3.5,3.9
		c2,0.3,3.7-0.5,4.5-2.2c0.6-1.1,0.4-2.4,0.4-3.6c-1.4-0.1-2.8-0.4-4-1c-0.1-0.1-0.3-0.1-0.5,0C35.8,23.6,34.5,23.9,33.1,24z
		 M40.3,33.8c-0.4,1.4-0.7,2.8-1.1,4.1c-0.2,0.7-0.3,1.4,0.2,2.1c0.1,0.1,0.1,0.2,0.1,0.3c0.1,0.3,0.3,0.4,0.6,0.4c2,0,4,0,6,0
		c0.1,0,0.3,0,0.5,0c0-0.6,0-1.2,0-1.8c-0.1-1.9-1-3.4-2.8-4.2C42.7,34.3,41.5,34.1,40.3,33.8z M9.7,33.8c-1.2,0.3-2.3,0.5-3.4,0.9
		c-0.6,0.2-1.2,0.6-1.6,1c-1.5,1.4-1.4,3.2-1.3,5c0.2,0,0.4,0,0.5,0c1.8,0,3.6,0,5.5,0c0.7,0,1.1-0.1,1.3-0.8c0-0.2,0.2-0.4,0.3-0.6
		c0.1-0.1,0.1-0.3,0.1-0.4C10.6,37.2,10.2,35.6,9.7,33.8z M22.7,32.9c0.1,0.9,0,1.6,0.2,2.4c0.5,2,1,4,1.5,6
		c0.2,0.8,0.4,1.5,0.6,2.3c0.1-0.1,0.1-0.1,0.1-0.2c0.7-2.8,1.5-5.6,2.1-8.4c0.2-0.7,0-1.4,0-2.1C25.7,33.4,24.3,33.4,22.7,32.9z
		 M16.9,22.1c0-1.5-0.6-2.8-1.9-3.5c-1.6-0.9-3.3-0.9-4.9,0.1c-1.2,0.8-1.7,2-1.6,3.4c1.2,0,2.3-0.3,3.3-0.9c0.6-0.4,1.2-0.4,1.8,0
		C14.6,21.8,15.7,22.1,16.9,22.1z M33.1,22.1c1.3,0,2.5-0.4,3.5-1c0.4-0.3,0.9-0.3,1.3,0c0.2,0.1,0.3,0.2,0.5,0.3
		c0.9,0.5,1.9,0.7,3,0.7c0.1-1.4-0.7-2.9-1.9-3.5c-1.6-0.9-3.3-0.9-4.8,0.1C33.6,19.5,33.1,20.7,33.1,22.1z M23.2,44.4
		c-0.7-2.7-1.4-5.5-2.1-8.2c-1.7,0.4-3.3,0.8-4.9,1.2C18.6,39.7,20.9,42,23.2,44.4z M26.8,44.2c2.3-2.3,4.6-4.6,6.9-6.9
		c-1.6-0.4-3.2-0.8-4.9-1.2C28.2,38.9,27.5,41.6,26.8,44.2z M15.9,31.9c1.7,0.5,3.3,0.9,4.9,1.4c0.1-1,0.1-1-0.8-1.7
		c-0.1-0.1-0.2-0.2-0.3-0.2c-0.6-0.7-1.3-1.4-1.9-2.1c-0.4,0.4-0.9,1-1.5,1.4c-0.3,0.3-0.5,0.5-0.5,0.9C16,31.7,15.9,31.8,15.9,31.9
		z M29.2,33.4c0.4-0.2,0.8-0.4,1.2-0.5c1.1-0.3,2.2-0.6,3.2-0.8c0.2,0,0.4-0.2,0.4-0.2c0-0.3,0-0.8-0.1-1c-0.6-0.6-1.2-1.1-1.9-1.7
		c-0.1,0.1-0.1,0.3-0.3,0.4c-0.6,0.7-1.1,1.5-1.8,2C29.2,32,29,32.6,29.2,33.4C29.1,33.4,29.1,33.4,29.2,33.4z M11.3,31.7
		c0.1,2,0.9,3.8,1.3,5.7c0.2-0.1,0.3-0.2,0.4-0.4c0.4-1.8,1.1-3.5,1.2-5.3C13.2,31.7,12.3,31.7,11.3,31.7z M38.8,31.7
		c-1,0-1.9,0-2.9,0c0,0.4,0,0.7,0.1,1.1c0.3,1.3,0.7,2.7,1,4c0.1,0.2,0.2,0.4,0.4,0.7c0.4-1.4,0.7-2.6,1-3.9
		C38.5,33,38.6,32.3,38.8,31.7z M31,34.6L31,34.6c1.3,0.4,2.5,0.7,3.8,1.1c-0.2-0.7-0.3-1.3-0.5-1.9C33.2,34.1,32.1,34.4,31,34.6z
		 M15.2,35.7c1.3-0.3,2.6-0.7,3.8-1v-0.1c-1.1-0.3-2.2-0.5-3.3-0.8C15.5,34.5,15.4,35.1,15.2,35.7z"/>
	<path class="st0" d="M25.9,4.4c0,0.6,0,1.2,0,1.9c0,0.6-0.4,1-0.9,1s-0.9-0.4-0.9-1c0-1.2,0-2.5,0-3.7c0-0.6,0.4-1,0.9-1
		s0.9,0.4,0.9,1S25.9,3.8,25.9,4.4z"/>
	<path class="st0" d="M17.2,7.6c0.4,0.4,0.9,0.9,1.3,1.3s0.5,1,0.1,1.3c-0.4,0.4-0.9,0.4-1.4,0c-0.9-0.9-1.8-1.7-2.7-2.6
		c-0.4-0.4-0.5-1-0.1-1.4s0.9-0.4,1.4,0.1C16.3,6.8,16.8,7.2,17.2,7.6z"/>
	<path class="st0" d="M32.9,7.6C32.5,8,32,8.5,31.6,8.9c-0.4,0.4-0.5,1-0.1,1.3c0.4,0.4,0.9,0.4,1.4,0c0.9-0.9,1.8-1.7,2.7-2.6
		c0.4-0.4,0.5-1,0.1-1.4s-0.9-0.4-1.4,0.1S33.4,7.2,32.9,7.6z"/>
	<path class="st0" d="M25,8.7c0.5,0,0.9,0.4,0.9,0.9s-0.4,1-0.9,0.9c-0.5,0-0.9-0.4-0.9-0.9C24.1,9.1,24.5,8.7,25,8.7z"/>
</g>
</svg>
